<?xml version="1.0" encoding="UTF-8" standalone="no"?>
<!-- Created with Inkscape (http://www.inkscape.org/) -->

<svg
   xmlns:dc="http://purl.org/dc/elements/1.1/"
   xmlns:cc="http://creativecommons.org/ns#"
   xmlns:rdf="http://www.w3.org/1999/02/22-rdf-syntax-ns#"
   xmlns:svg="http://www.w3.org/2000/svg"
   xmlns="http://www.w3.org/2000/svg"
   xmlns:xlink="http://www.w3.org/1999/xlink"
   xmlns:inkscape="http://www.inkscape.org/namespaces/inkscape"
   version="1.1"
   width="250"
   height="250"
   id="svg2">
  <defs
     id="defs4">
    <linearGradient
       id="linearGradient3860">
      <stop
         id="stop3862"
         style="stop-color:#ff8080;stop-opacity:1"
         offset="0" />
      <stop
         id="stop3864"
         style="stop-color:#ff8080;stop-opacity:0"
         offset="1" />
    </linearGradient>
    <inkscape:path-effect
       effect="sketch"
       id="path-effect3827" />
    <inkscape:path-effect
       effect="sketch"
       id="path-effect3825" />
    <inkscape:path-effect
       effect="spiro"
       id="path-effect3823" />
    <inkscape:path-effect
       effect="spiro"
       id="path-effect3819" />
    <inkscape:path-effect
       effect="sketch"
       id="path-effect3811" />
    <inkscape:path-effect
       effect="sketch"
       id="path-effect3809" />
    <inkscape:path-effect
       effect="sketch"
       id="path-effect3807" />
    <inkscape:path-effect
       effect="interpolate"
       id="path-effect3805" />
    <inkscape:path-effect
       effect="rough_hatches"
       id="path-effect3803" />
    <inkscape:path-effect
       effect="envelope"
       id="path-effect3801" />
    <inkscape:path-effect
       effect="construct_grid"
       id="path-effect3799" />
    <inkscape:path-effect
       effect="bend_path"
       id="path-effect3797" />
    <inkscape:path-effect
       effect="knot"
       id="path-effect3795" />
    <inkscape:path-effect
       effect="skeletal"
       id="path-effect3793" />
    <inkscape:path-effect
       effect="ruler"
       id="path-effect3791" />
    <inkscape:path-effect
       effect="spiro"
       id="path-effect3789" />
    <inkscape:path-effect
       effect="vonkoch"
       id="path-effect3787" />
    <inkscape:path-effect
       effect="curvestitching"
       id="path-effect3785" />
    <inkscape:path-effect
       effect="sketch"
       id="path-effect3783" />
    <inkscape:path-effect
       effect="interpolate"
       id="path-effect3781" />
    <inkscape:path-effect
       effect="rough_hatches"
       id="path-effect3779" />
    <inkscape:path-effect
       effect="rough_hatches"
       id="path-effect3777" />
    <inkscape:path-effect
       effect="rough_hatches"
       id="path-effect3775" />
    <inkscape:path-effect
       effect="rough_hatches"
       id="path-effect3773" />
    <inkscape:path-effect
       effect="rough_hatches"
       id="path-effect3771" />
    <inkscape:path-effect
       effect="rough_hatches"
       id="path-effect3769" />
    <inkscape:path-effect
       effect="rough_hatches"
       id="path-effect3767" />
    <inkscape:path-effect
       effect="rough_hatches"
       id="path-effect3765" />
    <inkscape:path-effect
       effect="rough_hatches"
       id="path-effect3763" />
    <inkscape:path-effect
       effect="rough_hatches"
       id="path-effect3761" />
    <inkscape:path-effect
       effect="spiro"
       id="path-effect2987" />
    <linearGradient
       x1="7.0631161"
       y1="926.68762"
       x2="244.46642"
       y2="926.68762"
       id="linearGradient3866"
       xlink:href="#linearGradient3860"
       gradientUnits="userSpaceOnUse" />
  </defs>
  <metadata
     id="metadata7">
    <rdf:RDF>
      <cc:Work
         rdf:about="">
        <dc:format>image/svg+xml</dc:format>
        <dc:type
           rdf:resource="http://purl.org/dc/dcmitype/StillImage" />
        <dc:title></dc:title>
        <cc:license
           rdf:resource="http://creativecommons.org/licenses/publicdomain/" />
        <dc:creator>
          <cc:Agent>
            <dc:title>Yu I.</dc:title>
          </cc:Agent>
        </dc:creator>
      </cc:Work>
      <cc:License
         rdf:about="http://creativecommons.org/licenses/publicdomain/">
        <cc:permits
           rdf:resource="http://creativecommons.org/ns#Reproduction" />
        <cc:permits
           rdf:resource="http://creativecommons.org/ns#Distribution" />
        <cc:permits
           rdf:resource="http://creativecommons.org/ns#DerivativeWorks" />
      </cc:License>
    </rdf:RDF>
  </metadata>
  <g
     transform="translate(0,-802.36218)"
     id="layer1">
    <path
       d="m 237.58936,903.79514 c 0.65071,-15.48768 -1.68724,-30.51388 -6.36483,-44.76047 -1.82671,-5.56363 -4.02369,-11.04547 -7.16739,-16.03703 -3.14371,-4.99157 -7.28183,-9.49879 -12.44516,-12.56443 -0.10229,-0.0607 -0.20492,-0.12085 -0.3079,-0.18038 m 11.71004,4.04022 c -0.24934,-0.4474 -0.50456,-0.89119 -0.76605,-1.3311 -3.05777,-5.14415 -7.01935,-9.76298 -11.95023,-12.88971 -5.06399,-3.21113 -11.00131,-4.74309 -16.87233,-4.892 -5.87102,-0.1489 -11.68509,1.04289 -17.18734,2.96846 -5.07605,1.7764 -9.91763,4.17975 -14.43784,7.10303 m 7.53995,-0.69149 c -8.32569,2.5402 -15.96895,6.4516 -22.66441,11.36129 -11.77872,8.63716 -20.60454,20.41352 -25.53331,33.42571 -0.57226,-1.6418 -1.19272,-3.26751 -1.86004,-4.87483 m 12.57962,-3.16481 c -1.73535,3.51583 -3.261,7.14624 -4.54559,10.86458 -4.97654,-13.29347 -14.07346,-25.31449 -25.62038,-34.09108 -6.921915,-5.26121 -14.719343,-9.37405 -22.933974,-11.86758 -4.041225,-1.2267 -8.201523,-2.06252 -12.371766,-2.27824 m 17.513547,-0.72785 c -4.27854,-2.36933 -8.676819,-4.34279 -13.145988,-5.86481 -5.703245,-1.94228 -11.557418,-3.15189 -17.312304,-3.04687 -5.754885,0.10502 -11.419884,1.56701 -16.060512,4.65684 -4.518491,3.00851 -7.924879,7.46042 -10.289559,12.36658 -2.291166,4.75363 -3.649565,9.93937 -4.634889,15.15632 m 8.488901,-13.01243 c -0.940506,1.2664 -1.807081,2.57246 -2.60087,3.9016 -3.07449,5.14799 -5.106589,10.6496 -6.713311,16.0933 -4.711378,15.9625 -5.881262,31.74689 -3.544798,46.7956 0.134899,0.86886 0.281719,1.73509 0.440305,2.59858 m -7.300933,-13.60673 c -0.411981,4.86521 -0.50729,9.73245 -0.286242,14.58015 0.908737,19.92902 7.262039,39.45182 17.811447,56.98138 m -1.682615,-19.36429 c 5.88405,15.33497 13.675751,30.33871 23.277216,44.01446 4.057432,5.77916 8.432864,11.31426 13.083941,16.55869 m -11.412784,-9.35129 c 19.97912,22.11629 44.799622,36.41099 71.930998,41.33069 1.72107,-0.5878 3.43327,-1.2131 5.13596,-1.8751 m -21.05809,-5.9289 c 6.03349,2.8172 12.34072,5.1401 18.8527,6.9722 23.13362,-5.1063 45.82333,-16.3922 64.98391,-30.6839 m -24.60603,16.0494 c 13.89184,-8.1299 25.75986,-18.59491 35.43002,-30.82544 7.3588,-9.30719 13.42934,-19.61755 18.30511,-30.54161 m -14.77522,12.68301 c 15.31878,-21.01122 22.83227,-47.4479 23.44872,-74.68782 0.0989,-4.36879 0.0246,-8.75496 -0.20857,-13.14023 m -1.04228,10.80241 c 0.24571,-13.88594 -1.73138,-27.26861 -5.4425,-39.56064 -1.54888,-5.13021 -3.41327,-10.10754 -6.17274,-14.49969 -2.75946,-4.39215 -6.46179,-8.20522 -11.1407,-10.45787 -1.70927,-0.82292 -3.53046,-1.42564 -5.41908,-1.8187 m 19.81317,5.72558 c -2.91293,-3.79517 -6.47681,-7.15772 -10.73626,-9.5132 -5.27298,-2.91596 -11.46181,-4.1846 -17.63733,-4.06373 -6.17551,0.12088 -12.34697,1.58882 -18.26984,3.83504 -7.51808,2.85119 -14.69366,6.96081 -21.32285,12.12848 m 16.49498,-13.94542 c -6.01293,2.38048 -11.75358,5.63285 -17.05735,9.57091 -11.92876,8.8571 -21.62739,21.23171 -27.72326,35.13034 -2.10013,-4.59657 -4.6622,-9.01733 -7.63414,-13.20513 m 8.90771,12.5774 c -0.53019,1.18585 -1.02977,2.38256 -1.498,3.5892 -5.59014,-13.25163 -14.46896,-25.13138 -25.50196,-33.71502 -6.613844,-5.14555 -13.996917,-9.12418 -21.80634,-11.47525 -5.172706,-1.55727 -10.565727,-2.40284 -15.944758,-1.97853 m 23.893888,4.00912 c -2.308522,-0.98513 -4.677883,-1.86935 -7.097751,-2.64142 -5.642239,-1.8002 -11.594773,-2.99346 -17.57849,-2.97119 -5.983717,0.0223 -12.007888,1.30246 -17.109354,4.13797 -4.9672,2.76088 -8.918457,6.89652 -11.897725,11.44221 -2.979268,4.54569 -5.034267,9.50744 -6.754494,14.46935 -1.801226,5.19555 -3.250201,10.43179 -4.316919,15.6787 m 6.047032,-26.16912 c -1.282186,3.15322 -2.34358,6.40736 -3.295017,9.68532 -4.895158,16.86517 -6.994681,34.6864 -5.861464,52.84572 0.803627,12.87776 3.268982,25.89672 7.27729,38.81727 m -7.990495,-34.78728 c 2.854834,27.50624 14.647778,53.20209 34.158611,73.51806 M 26.64048,971.58311 c 4.106746,6.50005 8.728411,12.7364 13.872799,18.59091 14.931367,16.99248 34.208893,30.70028 56.86382,39.17858 m -20.564798,-11.3351 c 14.068389,9.1086 29.428029,15.7748 45.414299,19.3194 14.19202,-4.1255 27.69075,-10.705 40.03435,-19.4755 m -20.49446,13.0908 c 22.61261,-10.3564 44.45234,-24.4781 61.51411,-42.68577 5.18096,-5.52891 9.91465,-11.42698 14.13447,-17.66607 m -19.86384,24.84338 c 1.32949,-1.5289 2.6272,-3.09239 3.89177,-4.68994 18.73834,-23.67259 30.10131,-54.7027 32.31612,-89.20626 m -10.50801,34.10367 c 2.46157,-10.10652 4.06612,-20.43319 4.67534,-30.7935 1.01069,-17.18802 -0.6467,-34.41383 -4.84801,-50.87732 -1.37893,-5.40359 -3.04425,-10.75942 -5.54035,-15.69191 m 14.21645,48.71062 c 0.21911,-13.71585 -2.08342,-27.47447 -6.45851,-40.3806 -1.78618,-5.26908 -3.93127,-10.43314 -7.01983,-15.04165 -3.08855,-4.60851 -7.16827,-8.66751 -12.27802,-11.17754 -3.36715,-1.65402 -7.11973,-2.59426 -11.003,-2.88464 m 23.63659,15.10299 c -2.59549,-3.37664 -5.69157,-6.34982 -9.31299,-8.56081 -5.18968,-3.16846 -11.30834,-4.66623 -17.41544,-4.78087 -6.10709,-0.11463 -12.21193,1.1115 -18.05865,3.08003 -7.34424,2.47271 -14.33809,6.12138 -20.76141,10.69266 m 16.39425,-4.65131 c -5.71177,2.33212 -11.12248,5.46602 -16.0795,9.23364 -11.57709,8.79926 -20.65938,21.10418 -25.80097,34.89861 -2.8677,-7.46962 -6.83712,-14.49214 -11.67752,-20.83164 m 8.79324,20.38057 C 118.70912,859.1585 109.50208,847.41229 97.975295,838.5409 90.87549,833.07666 82.900584,828.68559 74.355541,825.81131 72.51945,825.1937 70.653439,824.64578 68.765247,824.18656 m 15.007123,7.30124 c -3.335554,-1.57835 -6.775529,-2.95582 -10.291686,-4.09869 -5.679372,-1.84599 -11.593111,-3.08262 -17.473852,-3.1018 -5.880742,-0.0192 -11.73782,1.22156 -16.61972,4.01907 -4.753413,2.72389 -8.441244,6.82396 -11.118179,11.33506 -2.676936,4.5111 -4.390756,9.43926 -5.7418,14.36814 -0.132142,0.48209 -0.260942,0.96453 -0.386386,1.44731 m 2.368993,-26.23903 c -0.360383,0.51914 -0.708263,1.04654 -1.043721,1.5809 -3.067141,4.88574 -5.145096,10.35748 -6.84599,15.97079 -4.987519,16.45985 -6.8489346,34.45665 -5.49618,52.60372 0.741343,9.94505 2.469406,19.91802 5.072122,29.68199 m -4.007407,-21.26787 c 0.0098,0.45249 0.02187,0.90449 0.03622,1.356 0.892033,28.04795 10.781877,54.04081 27.506475,76.44032 m -0.644313,-25.99756 c 4.879734,9.69079 10.724093,18.82895 17.476626,27.19913 10.657283,13.21034 23.544726,24.46822 37.940062,33.33502 m -20.212365,-8.7898 c 16.675871,13.0512 35.013631,23.1779 53.885241,29.3207 8.73393,-1.8978 17.07793,-4.6469 24.92054,-8.1468 m -22.75873,1.1408 c 28.07351,-8.4172 54.49322,-24.8967 73.47064,-47.21216 1.06742,-1.25518 2.11099,-2.52845 3.13015,-3.81903 m -13.06626,13.90801 c 5.61967,-4.76486 10.73858,-9.8591 15.33431,-15.23207 14.31167,-16.73209 23.49383,-36.1003 28.01355,-55.64955 m -16.97912,33.4772 c 5.97352,-14.96837 9.835,-31.24547 11.11483,-47.74084 1.1159,-14.38245 0.31876,-28.89264 -2.26059,-42.83787 m 3.37529,25.29433 c -0.16172,-17.37757 -2.46015,-34.01916 -7.07203,-49.63712 -1.6246,-5.50164 -3.54976,-10.91335 -6.39836,-15.83302 -0.66664,-1.15131 -1.3864,-2.27591 -2.16033,-3.3617 m 10.20384,24.61772 c -1.18051,-3.5558 -2.64412,-7.02591 -4.54356,-10.29995 -2.96834,-5.11649 -7.0493,-9.75981 -12.28199,-12.95917 -5.37394,-3.28572 -11.81341,-4.94301 -18.35042,-5.26369 -6.53702,-0.32068 -13.18075,0.65294 -19.64775,2.31826 -9.46595,2.43758 -18.63045,6.36352 -27.05823,11.36342 -2.30802,1.36927 -4.56016,2.82042 -6.74975,4.34548 m 37.39463,-10.21848 c -6.5277,2.77067 -12.74543,6.50647 -18.3981,10.9991 -11.46569,9.11273 -20.58628,21.38903 -25.73041,35.21971 -3.53063,-9.16769 -8.71359,-17.6293 -15.0633,-24.82302 m 5.31771,6.70943 c -5.50359,-12.70451 -14.0777,-23.76433 -24.623311,-31.64496 -6.638289,-4.96073 -14.052908,-8.67927 -21.871244,-10.72671 -1.432687,-0.37518 -2.881298,-0.69423 -4.3409,-0.94576 m 15.653263,19.88976 c -3.499701,-1.59436 -7.059814,-2.97065 -10.657392,-4.09483 -5.782424,-1.8069 -11.697043,-2.96524 -17.499736,-2.86776 -5.802693,0.0975 -11.502847,1.49314 -16.172086,4.4831 -4.54635,2.91127 -7.974377,7.2342 -10.360104,12.00292 -2.385727,4.76872 -3.776994,9.98921 -4.795583,15.24433 -0.375113,1.93529 -0.701479,3.8803 -0.979425,5.83366 m 2.83263,-27.41227 c -3.014951,4.74445 -5.049329,10.07215 -6.682962,15.56 -4.883305,16.40447 -6.302163,34.55911 -4.225851,52.97612 1.035114,9.18152 2.956352,18.4139 5.672597,27.50642 m -1.021542,-23.96479 c 0.0087,0.35176 0.01878,0.7035 0.03026,1.05521 0.807655,24.75126 8.658899,49.23659 21.885166,70.32166 m -9.980566,-19.47484 c 4.523337,11.10488 10.61163,21.28443 17.955926,30.37924 8.554716,10.59371 18.792676,19.68981 29.958113,27.25451 m -17.470852,-11.719 c 16.284062,14.9443 37.707949,26.2674 60.631309,32.1699 1.03604,-0.2444 2.06927,-0.4999 3.09936,-0.7663 m -17.25307,2.4307 c 3.92608,1.5076 7.93765,2.7928 12.02089,3.8534 24.79708,-6.0094 48.75791,-20.2837 68.79762,-39.5558 m -20.52567,13.8296 c 11.05092,-7.7015 21.09053,-16.8333 29.70593,-27.11941 12.45936,-14.8755 21.89794,-32.11383 27.82004,-50.26724 m -16.71434,23.38117 c 10.43684,-19.26189 16.76703,-40.11547 19.01507,-61.18555 0.96996,-9.09106 1.1999,-18.20687 0.80775,-27.24479 m 1.65717,21.19725 c 0.1358,-15.59294 -2.81426,-31.15626 -8.57799,-46.08215 -2.18075,-5.64734 -4.77777,-11.24053 -8.39147,-16.3571 -3.61369,-5.11656 -8.2916,-9.76239 -14.08872,-12.96632 -5.95359,-3.29041 -12.93811,-4.95456 -20.00282,-5.28387 -0.081,-0.004 -0.16204,-0.007 -0.24308,-0.0108 m 34.27573,15.60218 c -2.22023,-3.15983 -4.9376,-5.9648 -8.15884,-8.13652 -4.99295,-3.36619 -11.04946,-5.10418 -17.19123,-5.51587 -6.14178,-0.41168 -12.37815,0.46067 -18.41557,2.00444 -8.83716,2.25966 -17.32538,5.96426 -24.99781,10.66799 -5.72895,3.51224 -10.99891,7.59155 -15.65976,12.06321 m 23.63505,-20.39146 c -1.91839,1.12173 -3.78223,2.33472 -5.58589,3.63143 -11.97395,8.60851 -21.27604,20.95567 -26.76347,34.96531 -5.35711,-12.88946 -14.21449,-24.24762 -25.592064,-32.8553 m 25.549034,23.67067 c -4.94027,-7.56815 -11.22725,-14.53193 -18.50918,-20.41352 -6.898818,-5.57214 -14.68575,-10.19043 -22.963238,-13.40238 -5.655379,-2.19448 -11.575338,-3.73509 -17.484616,-4.01145 -4.124504,-0.19289 -8.247972,0.24922 -12.04509,1.43196 m 12.378255,-3.95675 c -3.096547,-0.61842 -6.203165,-0.93802 -9.289953,-0.88785 -6.165668,0.1002 -12.260138,1.7193 -17.35612,5.11633 -4.961862,3.30762 -8.835922,8.2008 -11.699174,13.67958 -2.863251,5.47877 -4.763428,11.549 -6.323093,17.7592 -1.985945,7.90754 -3.441594,16.10269 -4.381454,24.45667 m -3.260845,-13.56439 c -4.7535851,16.3594 -6.6087883,33.38848 -5.1539906,50.34261 0.802235,9.3492 2.6318076,18.65915 5.4356756,27.79605 m 0.197377,-26.35339 c 3.162765,27.35254 13.618013,53.80124 29.920498,74.62474 2.810998,3.59055 5.793373,7.01076 8.928297,10.24564 M 39.846408,978.80136 c 2.42383,4.06004 5.110865,7.99018 8.041222,11.77508 13.731007,17.73516 32.749651,32.21246 53.86891,42.77956 m -21.251348,-14.6553 c 12.489975,7.403 26.976078,13.6635 42.592428,17.9471 12.34118,-2.5178 24.60547,-6.2664 36.36782,-11.2619 m -12.17477,3.1384 c 23.99969,-9.5327 43.74993,-23.684 56.37098,-41.38655 0.34688,-0.48654 0.68833,-0.9757 1.02432,-1.46743 m -21.54658,14.06447 c 4.14471,-3.79335 8.06874,-7.85879 11.75795,-12.17244 16.22903,-18.976 27.84668,-42.67455 35.11317,-67.86027 m -2.14398,20.32463 c 4.35403,-14.1156 6.93382,-28.23771 7.13589,-41.93346 0.20203,-13.69295 -1.92003,-26.92051 -6.49873,-39.28145 M 20.732015,961.96652 95.617902,1036.1922 M 207.37076,995.99314 244.00942,895.56571 m -97.16946,143.91479 79.05447,-70.82567 M 207.6307,809.02131 138.26485,832.88315 M 13.833034,848.24845 17.230942,953.797"
       id="path3817"
       style="fill:url(#linearGradient3866);fill-opacity:1;fill-rule:nonzero;stroke:#b30000;stroke-width:0.91399997;stroke-linecap:butt;stroke-linejoin:round;stroke-miterlimit:4;stroke-opacity:1;stroke-dasharray:none" />
  </g>
</svg>
