<?xml version="1.0" encoding="UTF-8" standalone="no"?>
<!-- Created with Inkscape (http://www.inkscape.org/) -->

<svg
   xmlns:dc="http://purl.org/dc/elements/1.1/"
   xmlns:cc="http://creativecommons.org/ns#"
   xmlns:rdf="http://www.w3.org/1999/02/22-rdf-syntax-ns#"
   xmlns:svg="http://www.w3.org/2000/svg"
   xmlns="http://www.w3.org/2000/svg"
   xmlns:sodipodi="http://sodipodi.sourceforge.net/DTD/sodipodi-0.dtd"
   xmlns:inkscape="http://www.inkscape.org/namespaces/inkscape"
   width="200"
   height="200"
   id="svg2"
   version="1.1"
   inkscape:version="0.48.1 r9760"
   sodipodi:docname="leaf.svg">
  <sodipodi:namedview
     id="base"
     pagecolor="#ffffff"
     bordercolor="#666666"
     borderopacity="1.0"
     inkscape:pageopacity="0.0"
     inkscape:pageshadow="2"
     inkscape:zoom="1.08"
     inkscape:cx="203.44434"
     inkscape:cy="195.30379"
     inkscape:document-units="px"
     inkscape:current-layer="layer1"
     showgrid="false"
     inkscape:window-width="1146"
     inkscape:window-height="735"
     inkscape:window-x="20"
     inkscape:window-y="20"
     inkscape:window-maximized="0"
     showborder="true"
     inkscape:showpageshadow="true" />
  <defs
     id="defs4" />
  <metadata
     id="metadata7">
    <rdf:RDF>
      <cc:Work
         rdf:about="">
        <dc:format>image/svg+xml</dc:format>
        <dc:type
           rdf:resource="http://purl.org/dc/dcmitype/StillImage" />
        <dc:title />
        <cc:license
           rdf:resource="http://www.patternhead.com/terms-of-use" />
        <dc:creator>
          <cc:Agent>
            <dc:title>John Rawsterne</dc:title>
          </cc:Agent>
        </dc:creator>
        <dc:contributor>
          <cc:Agent>
            <dc:title>Yu I.</dc:title>
          </cc:Agent>
        </dc:contributor>
        <dc:source>http://www.patternhead.com/</dc:source>
      </cc:Work>
    </rdf:RDF>
  </metadata>
  <g
     inkscape:label="Layer 1"
     inkscape:groupmode="layer"
     id="layer1"
     transform="translate(0,-852.36218)">
    <g
       id="g4017"
       transform="translate(0.16698475,-0.15178773)"
       style="fill:#c8143c;fill-opacity:1;stroke:none;opacity:0.1">
      <path
         style="fill:#c8143c;fill-opacity:1;stroke:none"
         d="m 19.239642,1048.6122 0.502981,-3.75 -5.653708,0 c -3.411405,0 -7.32644,-0.7543 -9.8713112,-1.9019 C 0.64984377,1041.3515 0,1040.6059 0,1038.1214 l 0,-2.937 2.9745959,2.503 c 7.3014111,6.1437 16.3377431,5.6529 26.9990441,-1.4664 13.854788,-9.2519 22.09045,-24.5862 21.944206,-40.85882 -0.08802,-9.79426 -0.638407,-10.47233 -5.251444,-6.46978 -2.719567,2.35966 -3.228111,3.16793 -1.75,2.78139 2.379934,-0.62237 2.551621,-0.0726 0.938089,3.00413 -1.109377,2.11536 -1.083236,2.12906 0.82874,0.43426 3.257983,-2.88792 4.658506,-2.2433 3.996002,1.83923 -0.320349,1.97408 -1.166728,4.29379 -1.880842,5.15489 -1.659414,2.001 -7.590838,4.5022 -8.842409,3.7287 -1.269112,-0.7844 -1.224816,-8.10198 0.06362,-10.50944 0.823226,-1.53821 0.100982,-1.33689 -3.75,1.0453 -13.401905,8.29034 -35.1388641,10.72394 -36.10744309,4.04264 -0.2928595,-2.02021 -0.0265505,-2.24018 1.99999999,-1.652 5.1491099,1.4944 8.9504181,1.8109 13.5207171,1.12553 l 4.793677,-0.71886 -3.988275,-1.36125 c -4.556813,-1.5553 -10.1056327,-7.07198 -11.1006186,-11.03632 -1.4178006,-5.64897 3.6621869,-11.47954 8.6284346,-9.90331 2.703931,0.85819 2.760669,5.49489 0.06724,5.49489 -1.054166,0 -2.093224,-0.52967 -2.309017,-1.17705 C 11.061466,979.04658 9,981.4253 9,984.3864 c 0,3.93901 5.158265,9.64331 10.043871,11.10707 5.471827,1.6394 11.129347,-0.18691 19.122551,-6.17296 7.661746,-5.73782 12.141925,-11.86133 11.543185,-15.77722 l -0.409943,-2.68111 -0.149832,2.75 c -0.181902,3.33861 -1.152427,3.46487 -3.843171,0.5 -3.72814,-4.10796 -5.180133,-7.19693 -5.875708,-12.5 -0.636246,-4.85075 -0.532632,-5.25 1.362477,-5.25 1.1281,0 3.998574,1.48236 6.378831,3.29414 3.483411,2.65146 4.435378,4.06591 4.879458,7.25 l 0.551719,3.95586 1.325142,-4.5 c 1.697794,-5.76547 1.795778,-16.44231 0.194559,-21.20002 C 51.60932,937.69285 41.767521,932.15285 35.125464,934.46829 32.395401,935.41999 30,937.91012 30,939.79644 c 0,0.31116 0.873442,0.56574 1.940983,0.56574 2.356181,0 3.274392,1.27517 2.455273,3.40976 C 32.912065,947.63968 27,943.91742 27,939.11523 c 0,-3.94595 0.972708,-5.68758 4.071521,-7.29004 3.293706,-1.70324 11.182008,-1.93288 14.03044,-0.40844 1.918659,1.02683 1.929222,0.95451 0.401672,-2.75 -0.862843,-2.09251 -2.315151,-4.36707 -3.227349,-5.05457 -2.108756,-1.58931 -7.507231,-1.61905 -9.076284,-0.05 -1.413524,1.41352 -1.615865,3.17505 -0.269098,2.3427 1.398624,-0.86439 2.456387,1.47001 1.224347,2.70205 -1.666897,1.6669 -4.310658,-1.10783 -3.955807,-4.15177 0.442717,-3.79765 4.897717,-5.68005 9.897543,-4.18207 2.10686,0.63123 4.521936,2.13463 5.366835,3.3409 C 46.572817,925.1973 47,925.37667 47,924.259 c 0,-2.70394 4.512424,-6.08171 7.645852,-5.72329 2.270898,0.25975 2.918809,0.88844 3.17057,3.07647 0.233634,2.03049 -0.121407,2.75 -1.356988,2.75 -1.060409,0 -1.467059,-0.53775 -1.110097,-1.46798 0.920873,-2.39975 -0.932016,-2.64812 -3.672691,-0.49231 -4.717577,3.71085 -4.31349,8.19306 1.316738,14.60554 3.830224,4.36238 5.305605,9.95748 5.361194,20.33128 l 0.04542,8.47653 2.682971,-5.97653 c 4.497383,-10.01828 6.26913,-20.23662 5.614212,-32.37932 -0.947722,-17.5715 -3.077491,-21.27436 -9.858492,-17.14019 -3.981945,2.42768 -6.915803,2.57158 -10.858707,0.53263 -4.430942,-2.29133 -6.715459,-7.17675 -2.887937,-6.17583 1.939415,0.50717 1.975894,0.41874 0.5,-1.21211 -3.279172,-3.62345 -0.671983,-6.10171 6.419137,-6.10171 4.23364,0 8.042074,2.65885 10.730766,7.49167 0.609425,1.09542 1.345682,1.75403 1.636126,1.46359 0.777843,-0.77784 -4.74951,-11.33103 -8.886583,-16.96685 -6.256718,-8.52336 -17.856875,-12.43642 -25.362046,-8.55535 -5.460527,2.82375 -8.864216,10.43217 -5.964243,13.33214 0.886936,0.88694 1.469374,0.75559 2.438882,-0.55 1.19874,-1.61428 1.375187,-1.61519 2.998895,-0.0154 1.427576,1.40656 1.503257,1.96726 0.438674,3.25 -3.860371,4.65146 -11.728378,-0.83059 -10.658083,-7.42605 1.280732,-7.89222 8.752682,-13.23855 17.88985,-12.80053 5.043907,0.2418 5.549336,0.1046 4,-1.08576 -3.611601,-2.77481 -16.329541,-8.3424 -19.387867,-8.48751 -2.745471,-0.13026 -3.312487,0.29172 -4.31584,3.21187 -0.635312,1.84901 -2.009406,3.98651 -3.053542,4.75 C 9.9692542,876.83636 4,876.81639 4,874.94551 4,874.16635 3.4610836,873.34921 2.802408,873.12965 0.99451019,872.52702 3.6292225,866.85237 6.3211782,865.55091 8.2235558,864.63119 7.9607693,864.48895 4.25,864.42986 0.68922676,864.37316 0,864.03784 0,862.36218 c 0,-1.78852 0.66087879,-1.99816 6.25,-1.98264 9.296409,0.0258 19.270889,2.45953 28.239393,6.89021 7.863998,3.88503 11.092961,4.58948 6.594641,1.43874 -3.66406,-2.56641 -5.343233,-7.67 -4.074188,-12.38288 0.976143,-3.62511 1.355597,-3.96343 4.445365,-3.96343 1.857967,0 3.605096,0.5625 3.882508,1.25 0.403509,1 0.520176,1 0.583334,0 0.04342,-0.6875 0.961602,-1.25 2.040403,-1.25 3.137356,0 4.617744,6.97717 2.449756,11.54586 -0.919566,1.93784 -2.556295,4.14278 -3.637175,4.89986 -2.507089,1.75603 -1.780102,4.1892 2.483368,8.31162 l 3.242595,3.13533 0.130301,-8.19634 c 0.164393,-10.34089 2.864987,-19.05327 6.046403,-19.50628 l 2.176704,-0.30994 -2.036447,5.30994 c -1.245865,3.24854 -2.202642,8.60979 -2.464547,13.80995 l -0.4281,8.5 1.787843,-3.40911 c 2.323257,-4.43005 4.980308,-6.14854 6.325149,-4.09089 1.72607,2.64094 2.275453,6.20887 1.356348,8.80872 C 64.328383,884.1842 62,885.27063 62,882.75438 c 0,-1.62164 -0.123248,-1.60729 -1.431081,0.16667 -1.392055,1.88819 -1.46096,1.87295 -2.526683,-0.55887 -1.040391,-2.37402 -1.07068,-2.33803 -0.601061,0.71429 0.271997,1.76785 1.817567,5.04067 3.434601,7.27292 l 2.94006,4.05864 -0.525478,-3.91773 c -0.475932,-3.54834 -0.122519,-4.35489 3.748268,-8.5542 2.350559,-2.55005 4.765755,-4.47246 5.367102,-4.27201 0.601347,0.20045 1.411085,2.57702 1.799419,5.28127 0.581415,4.04882 0.282323,5.84364 -1.694219,10.16682 -2.373834,5.19215 -3.869665,6.42617 -4.848647,4 -0.387912,-0.96135 -0.522617,-0.94772 -0.583334,0.059 -0.04386,0.72719 -0.5921,0.99187 -1.233455,0.59549 -0.764104,-0.47224 -0.880805,-0.27066 -0.34511,0.59611 0.44517,0.7203 1.8383,4.27733 3.095845,7.90451 1.666867,4.8078 2.302342,5.83736 2.345109,3.79942 0.132037,-6.29181 9.26145,-10.43119 11.945398,-5.41619 0.874797,1.63458 0.936751,3.04571 0.216848,4.9392 -1.25581,3.30303 -3.909034,4.77244 -8.617296,4.77244 -3.441204,0 -3.614889,0.1539 -3.103616,2.75 0.297869,1.5125 0.834343,4.885 1.192166,7.49445 l 0.650586,4.74444 2.729671,-3.74444 c 9.006527,-12.35477 24.899757,-20.54302 36.497767,-18.80379 12.58477,1.8872 20.92359,17.18506 12.8355,23.54715 -4.24847,3.34186 -9.28836,2.15474 -9.28836,-2.18781 0,-2.49027 4.98594,-2.5398 5.03327,-0.05 0.0276,1.45017 0.38077,1.3325 2.06153,-0.68677 1.42589,-1.71308 1.83834,-3.19802 1.38878,-5 -2.07645,-8.32303 -9.51252,-13.69369 -17.62895,-12.73242 -10.756569,1.27396 -24.770242,11.64893 -30.195475,22.35511 -1.439284,2.84029 -3.775351,9.5854 -5.191259,14.98912 -2.763667,10.54736 -8.026432,22.74632 -12.139273,28.13853 -2.276196,2.98425 -2.469225,3.90552 -1.852517,8.84149 1.531874,12.2607 7.043159,23.03018 15.827507,30.92798 9.361967,8.4173 16.759748,10.5148 22.144845,6.2789 4.921912,-3.8716 5.490972,-9.3868 0.848297,-8.2216 -2.064933,0.5183 -2.432844,0.3017 -2.135525,-1.2571 0.426064,-2.2338 4.32989,-3.0504 6.39381,-1.3375 1.9757,1.6396 1.78148,7.9673 -0.32728,10.6627 -0.950266,1.2147 -3.292063,2.8593 -5.20399,3.6548 l -3.47623,1.4464 4.719556,0.7077 c 9.157734,1.3733 16.351894,-1.8091 20.451224,-9.0469 2.64856,-4.6763 2.87434,-8.1793 0.72498,-11.2479 -1.9455,-2.7776 -3.05442,-2.8176 -3.75579,-0.1356 -0.74265,2.8399 -4.08522,2.113 -4.525,-0.984 -0.40786,-2.8723 1.23878,-4.0672 5.63294,-4.0876 6.98735,-0.033 10.34577,7.9342 6.85742,16.2668 -1.35387,3.234 -8.79438,10.7179 -10.65575,10.7179 -1.91979,0 -0.96032,1.7078 3.50288,6.2349 4.95794,5.029 5.89299,9.3313 2.9433,13.5426 -2.0832,2.9742 -4.04372,2.8011 -5.97502,-0.5275 -1.4569,-2.511 -1.39742,-1.5461 0.13871,2.25 0.77879,1.9246 -0.57282,1.9126 -3.34562,-0.03 -4.40221,-3.0835 -4.74456,-11.0692 -0.66766,-15.5741 2.59817,-2.8709 0.81003,-4.6963 -4.06256,-4.1471 -6.36119,0.717 -18.356039,-2.2837 -25.15761,-6.2936 -7.369427,-4.3446 -16.189464,-13.6576 -19.374061,-20.4569 l -2.436524,-5.20205 -1.259286,6.85165 c -2.596127,14.1251 -12.119256,27.7682 -24.164435,34.6187 -5.699611,3.2415 -9.478631,8.0881 -8.56095,10.9795 0.415236,1.3083 -0.0017,1.7534 -1.642565,1.7534 -1.963885,0 -2.145267,-0.4011 -1.696077,-3.75 z m 29.443472,-81.43752 c -0.319226,-0.79773 -0.556183,-0.56078 -0.604167,0.60417 -0.04342,1.05416 0.192928,1.64479 0.52522,1.3125 0.332291,-0.3323 0.367818,-1.1948 0.07895,-1.91667 z m 17.979167,-77.0625 c -0.277413,-0.6875 -0.504386,-0.125 -0.504386,1.25 0,1.375 0.226973,1.9375 0.504386,1.25 0.277412,-0.6875 0.277412,-1.8125 0,-2.5 z M 25.75,1051.6999 c 0.6875,-0.2774 1.8125,-0.2774 2.5,0 0.6875,0.2774 0.125,0.5044 -1.25,0.5044 -1.375,0 -1.9375,-0.227 -1.25,-0.5044 z m 13.75,-0.3377 c 0.339919,-0.55 1.491476,-1 2.559017,-1 1.067541,0 1.940983,0.45 1.940983,1 0,0.55 -1.151558,1 -2.559017,1 -1.451367,0 -2.291506,-0.4329 -1.940983,-1 z m 6.5,0 c 0,-0.55 0.423442,-1 0.940983,-1 0.517541,0 1.219098,0.45 1.559017,1 0.339919,0.55 -0.08352,1 -0.940983,1 -0.857459,0 -1.559017,-0.45 -1.559017,-1 z m 11.600013,-0.25 c 3.068368,-5.3415 8.516238,-11.502 12.285369,-13.8923 3.738684,-2.371 5.588375,-2.8577 10.860059,-2.8577 10.339416,0 15.578729,3.9896 16.74394,12.75 l 0.698295,5.25 -5.667162,0 c -4.868731,0 -5.616089,-0.2466 -5.30465,-1.75 0.247005,-1.1924 1.201043,-1.6935 2.994184,-1.5726 5.48148,0.3696 3.879926,-5.8226 -2.514382,-9.7214 -3.796455,-2.3149 -10.628852,-2.5591 -14.570477,-0.5208 -2.963077,1.5323 -9.23125,8.0259 -11.077839,11.4763 -0.614745,1.1487 -2.028442,2.0885 -3.141551,2.0885 -1.335358,0 -1.779565,-0.4252 -1.305786,-1.25 z M 155,1049.8301 c 0,-9.4803 -11.42162,-18.3085 -19.87454,-15.3618 -2.73006,0.9517 -5.12546,3.4418 -5.12546,5.3281 0,0.3112 0.87344,0.5658 1.94098,0.5658 2.35618,0 3.2744,1.2752 2.45528,3.4097 -1.4842,3.8678 -7.39626,0.1455 -7.39626,-4.6567 0,-3.9459 0.97271,-5.6875 4.07152,-7.29 3.29371,-1.7032 11.18201,-1.9329 14.03044,-0.4085 1.91866,1.0269 1.92922,0.9546 0.40167,-2.75 -0.86284,-2.0925 -2.31515,-4.367 -3.22735,-5.0545 -2.10875,-1.5893 -7.50723,-1.6191 -9.07628,-0.05 -1.41352,1.4135 -1.61586,3.175 -0.2691,2.3427 1.39863,-0.8644 2.45639,1.47 1.22435,2.702 -1.6669,1.6669 -4.31066,-1.1078 -3.95581,-4.1517 0.44272,-3.7977 4.89772,-5.6801 9.89754,-4.1821 2.10686,0.6312 4.52194,2.1346 5.36684,3.3409 1.109,1.5833 1.53618,1.7627 1.53618,0.645 0,-2.7039 4.51242,-6.0817 7.64585,-5.7233 2.2709,0.2598 2.91881,0.8884 3.17057,3.0765 0.23364,2.0305 -0.12141,2.75 -1.35699,2.75 -1.06041,0 -1.46705,-0.5378 -1.11009,-1.468 0.92087,-2.3998 -0.93202,-2.6481 -3.67269,-0.4923 -4.71411,3.7081 -4.31318,8.1934 1.30426,14.5913 4.38515,4.9944 6.76065,15.369 3.51909,15.369 -0.93841,0 -1.5,-0.948 -1.5,-2.5321 z m 9.32276,1.1334 c 1.92134,-5.007 2.89565,-14.8146 2.37486,-23.9058 -0.98522,-17.1988 -3.13032,-20.8407 -9.85893,-16.7385 -3.98194,2.4277 -6.9158,2.5716 -10.85871,0.5326 -4.43094,-2.2913 -6.71545,-7.1767 -2.88793,-6.1758 1.93941,0.5072 1.97589,0.4187 0.5,-1.2121 -3.27918,-3.62346 -0.67199,-6.10172 6.41913,-6.10172 4.23364,0 8.04208,2.65882 10.73077,7.49162 0.60942,1.0955 1.34568,1.7541 1.63612,1.4636 0.77785,-0.7778 -4.74951,-11.33099 -8.88658,-16.96681 -6.25672,-8.52336 -17.85687,-12.43642 -25.36205,-8.55535 -5.46052,2.82375 -8.86421,10.43217 -5.96424,13.33214 0.88694,0.88694 1.46938,0.75559 2.43888,-0.55 1.19874,-1.61428 1.37519,-1.61519 2.9989,-0.0154 1.42757,1.40656 1.50326,1.96726 0.43867,3.25 -3.86037,4.65142 -11.72838,-0.83059 -10.65808,-7.42605 1.28073,-7.89222 8.75268,-13.23855 17.88985,-12.80053 5.04391,0.2418 5.54934,0.1046 4,-1.08576 -3.6116,-2.77481 -16.32954,-8.3424 -19.38787,-8.4875 -2.74547,-0.13027 -3.31248,0.29171 -4.31584,3.21186 -0.63531,1.84901 -2.0094,3.98651 -3.05354,4.75 -2.54692,1.86235 -8.51617,1.84238 -8.51617,-0.0285 0,-0.77916 -0.53892,-1.5963 -1.19759,-1.81586 -1.8079,-0.60263 0.82681,-6.27728 3.51877,-7.57874 1.79348,-0.86708 1.11095,-1.06534 -3.85929,-1.12105 -10.442739,-0.11705 -18.721885,5.77596 -17.114151,12.18169 1.080365,4.30451 5.604825,7.81749 5.29115,4.10826 -0.185965,-2.19905 2.198994,-2.94368 2.972461,-0.92805 1.488587,3.87919 -5.866707,6.37751 -8.70553,2.95694 -0.736489,-0.88741 -1.611314,-3.69991 -1.944056,-6.25 l -0.604986,-4.63651 -2.66862,5.5 c -3.656787,7.5366 -3.723352,15.05571 -0.164789,18.61428 2.83369,2.83369 5.972114,2.82569 5.974836,-0.0152 0.0026,-2.73232 2.928323,-4.31989 4.917972,-2.66863 4.213195,3.49664 -0.02686,9.06957 -6.9004,9.06957 -3.52918,0 -5.171393,-0.614 -7.710692,-2.88285 -2.958177,-2.64313 -3.259947,-3.47535 -3.62909,-10.00825 -0.349141,-6.17895 -0.0474,-7.85144 2.271641,-12.5914 1.470844,-3.0063 4.519886,-7.04578 6.775649,-8.97663 l 4.101387,-3.51063 -2.662336,-2.46737 c -3.141774,-2.9117 -3.315982,-4.53408 -0.818094,-7.61884 2.038933,-2.518 5.155758,-2.13036 5.155758,0.6412 0,1.17122 -0.595467,1.49229 -2.058227,1.10977 -2.912054,-0.76151 -2.168741,2.0508 1.207661,4.56917 2.413068,1.79985 3.223302,1.87621 9.081913,0.85598 13.826893,-2.40785 26.430253,-0.54987 39.258043,5.7874 8.36037,4.13025 10.59712,4.52152 6.23566,1.0908 -1.41915,-1.11631 -3.06226,-3.4901 -3.65137,-5.27511 -2.53775,-7.68946 4.46089,-17.20156 7.70583,-10.47326 l 1.08513,2.25 0.0677,-2.25 c 0.13823,-4.59552 4.08244,-0.96743 5.4774,5.03841 0.75539,3.2522 -1.66436,9.07611 -4.63568,11.15731 -2.50689,1.75589 -1.78036,4.18822 2.48336,8.31397 l 3.2426,3.13766 0.0733,-7.69867 c 0.0403,-4.23428 0.83506,-10.26795 1.76616,-13.40817 2.29499,-7.74011 9.15831,-17.54928 15.07155,-21.54051 4.19479,-2.83134 5.64422,-3.25 11.2517,-3.25 10.27705,0 15.58903,3.94842 16.81684,12.5 0.39484,2.75 1.15172,5.81071 1.68198,6.80158 0.53025,0.99088 0.79696,2.79088 0.59269,4 -0.35416,2.09632 -0.43419,2.07071 -1.72331,-0.55158 -1.67088,-3.39887 -2.39348,-3.44433 -3.85238,-0.24239 -1.67597,3.67835 -7.23017,6.05369 -11.37539,4.86485 -2.91586,-0.83626 -3.3031,-1.35164 -3.3031,-4.39619 0,-2.48959 0.48675,-3.54262 1.75,-3.7859 2.00794,-0.38669 2.44411,2.36132 0.5,3.15017 -1.93096,0.78351 1.20437,2.6258 4.5,2.64415 2.64236,0.0147 6.75,-2.97825 6.75,-4.91827 0,-0.51347 -1.2375,-1.07597 -2.75,-1.25 -1.97786,-0.22758 -2.75,-0.87798 -2.75,-2.31642 0,-1.54507 0.60752,-1.95964 2.67086,-1.82257 5.51806,0.36657 3.94648,-5.80589 -2.47519,-9.72143 -3.79646,-2.31485 -10.62886,-2.55903 -14.57048,-0.52074 -9.45986,4.89188 -17.1907,20.74765 -17.07716,35.02484 l 0.048,6.0399 1.70197,-3.40911 c 2.19799,-4.40266 4.88433,-6.164 6.23928,-4.09089 1.72607,2.64094 2.27545,6.20887 1.35634,8.80872 -1.06527,3.0133 -3.39365,4.09973 -3.39365,1.58348 0,-1.62164 -0.12325,-1.60729 -1.43108,0.16667 -1.39206,1.88819 -1.46096,1.87295 -2.52668,-0.55887 -1.0404,-2.37402 -1.07068,-2.33803 -0.60106,0.71429 0.27199,1.76786 1.81756,5.04067 3.4346,7.27292 l 2.94006,4.05864 -0.52548,-3.91773 c -0.47593,-3.54834 -0.12252,-4.35489 3.74827,-8.5542 2.35056,-2.55005 4.76575,-4.47246 5.3671,-4.27201 0.60134,0.20045 1.41108,2.57702 1.79942,5.28127 0.58141,4.04882 0.28232,5.84364 -1.69422,10.16682 -2.37384,5.19215 -3.86967,6.42617 -4.84865,4 -0.38791,-0.96135 -0.52262,-0.94772 -0.58333,0.059 -0.0439,0.72719 -0.5921,0.99187 -1.23346,0.59549 -0.7641,-0.47224 -0.8808,-0.27066 -0.34511,0.59611 0.44517,0.7203 1.8383,4.27732 3.09585,7.90452 1.66686,4.8078 2.30234,5.8373 2.34511,3.7994 0.13203,-6.2918 9.26145,-10.43118 11.94539,-5.4162 0.8748,1.6346 0.93676,3.0457 0.21685,4.9392 -1.25581,3.303 -3.90903,4.7725 -8.61729,4.7725 -3.44121,0 -3.61489,0.1539 -3.10362,2.75 0.29787,1.5125 0.83434,4.885 1.19217,7.4944 l 0.65058,4.7445 2.72967,-3.7445 c 4.07649,-5.5919 11.22756,-11.7966 16.92145,-14.6819 5.78483,-2.9314 7.12343,-3.1442 7.12343,-1.1327 0,0.7864 -2.1175,2.4739 -4.70556,3.75 -6.33151,3.1219 -15.42038,12.1618 -18.66475,18.5643 -1.4555,2.8722 -3.31906,7.805 -4.14125,10.9616 -2.45515,9.4259 -2.37495,9.2943 -5.66282,9.2943 -2.19321,0 -2.89014,-0.3895 -2.50286,-1.3987 z m 2.33952,-60.85132 c -0.27741,-0.6875 -0.50439,-0.125 -0.50439,1.25 0,1.375 0.22698,1.9375 0.50439,1.25 0.27741,-0.6875 0.27741,-1.8125 0,-2.5 z M 186,1049.4355 c 0,-0.5097 0.7875,-1.1325 1.75,-1.384 1.31691,-0.3441 1.19317,-0.486 -0.5,-0.5733 -1.6607,-0.086 -2.25,-0.7302 -2.25,-2.461 0,-3.597 3.01003,-5.655 8.27076,-5.655 l 4.61328,0 -2.42997,-4.25 c -3.44278,-6.0214 -3.2198,-10.1481 0.76064,-14.0769 2.68146,-2.6468 3.27361,-2.8859 3.56974,-1.4417 0.19527,0.9522 -0.35135,2.7399 -1.21471,3.9725 -1.95281,2.788 -1.96625,4.5122 -0.0636,8.1604 1.6871,3.2348 2.01515,9.6357 0.49386,9.6357 -0.55,0 -1,0.9204 -1,2.0454 0,3.3334 -4.40222,6.9546 -8.45455,6.9546 -1.95,0 -3.54545,-0.417 -3.54545,-0.9267 z m -134.654806,-9.2934 c -5.138012,-5.4271 -5.597382,-7.0069 -3.599173,-12.3775 2.146406,-5.7689 4.411615,-6.3921 7.499372,-2.0633 1.822076,2.5545 2.254607,4.4995 2.254607,10.1387 0,8.3285 -1.409918,9.314 -6.154806,4.3021 z m -0.655868,-12.5299 c -0.251528,-0.9625 -0.457323,-0.175 -0.457323,1.75 0,1.925 0.205795,2.7125 0.457323,1.75 0.251527,-0.9625 0.251527,-2.5375 0,-3.5 z M 17.2,1031.1622 c -0.66,-0.66 -1.2,-2.01 -1.2,-3 0,-2.4903 4.985936,-2.5398 5.033269,-0.05 0.02757,1.4502 0.380776,1.3325 2.061532,-0.6868 2.30499,-2.7692 1.975592,-5.5741 -1.273523,-10.8443 -3.633298,-5.8933 -11.145517,-8.4203 -18.6412614,-6.2706 -2.83825372,0.814 -3.26141718,0.7129 -2.98661897,-0.714 0.42373824,-2.2003 6.69227157,-3.6285 12.26081737,-2.7935 9.048794,1.357 17.636834,11.3152 16.037625,18.5963 -1.15631,5.2647 -8.196863,8.8579 -11.29184,5.7629 z m -16.1325284,-7.674 c -1.61736956,-3.022 -1.28487181,-5.126 0.8100837,-5.126 2.39016,0 4.3889899,2.3774 3.9435369,4.6905 -0.4874564,2.5311 -3.4851015,2.8058 -4.7536206,0.4355 z m 56.2786734,0.2729 c -3.774322,-1.8616 -4.487909,-4.0026 -3.124437,-9.3743 1.164845,-4.5891 2.015244,-4.9521 4.221588,-1.8021 1.279593,1.8269 1.556704,1.9159 1.556704,0.5 0,-2.1309 0.914615,-2.1711 3.777494,-0.1658 2.666099,1.8674 2.993748,6.8972 0.665802,10.2208 -1.832336,2.616 -2.869079,2.7068 -7.097151,0.6214 z M 193.92612,999.53028 C 185.31888,994.07173 181,986.97635 181,978.2943 c 0,-4.5032 0.41666,-5.54878 3.4,-8.53212 3.19605,-3.19605 5.3287,-3.91866 10.1,-3.42221 4.80015,0.49946 7.26483,6.00734 3.57244,7.98344 -2.48479,1.32982 -4.73384,0.44158 -5.40783,-2.13576 -0.7368,-2.81753 -2.79965,-1.85942 -5.10863,2.37277 -1.6893,3.09636 -1.78929,4.07967 -0.76316,7.50458 1.42777,4.76549 5.55124,10.27974 9.95718,13.31561 2.12325,1.463 3.25,3.06141 3.25,4.61047 0,3.03072 -0.64557,2.98172 -6.07388,-0.4608 z M 59.666667,990.69551 C 59.3,990.32885 59,988.50168 59,986.63515 c 0,-3.31012 0.09236,-3.38606 3.75,-3.08334 3.546357,0.29352 3.766854,0.51401 4.060365,4.06037 0.302722,3.65764 0.226784,3.75 -3.083333,3.75 -1.866534,0 -3.693699,-0.3 -4.060365,-0.66667 z M 33.25,983.87131 c -3.865359,-1.68004 -4.093027,-3.36852 -0.863315,-6.40268 l 2.386685,-2.24217 -2.386685,-2.38669 c -4.174287,-4.17428 -2.77836,-7.47759 3.159919,-7.47759 4.305973,0 6.078671,6.41117 2.203396,7.96884 -2.148975,0.86378 -2.124295,0.90723 0.54966,0.96777 1.539813,0.0349 4.13487,0.75385 5.766793,1.59775 2.468562,1.27655 2.797342,1.85162 1.956661,3.42245 -1.386327,2.59038 -5.94515,6.05162 -7.907973,6.00405 -0.888327,-0.0215 -3.077641,-0.67481 -4.865141,-1.45173 z m 25.378913,-3.03379 c -0.349464,-0.91068 0.138091,-2.96519 1.083456,-4.56557 1.510371,-2.55685 2.289215,-2.90977 6.421451,-2.90977 8.501994,0 9.769682,1.46698 4.61618,5.34188 -4.295466,3.22975 -11.2319,4.45065 -12.121087,2.13346 z M 2.6348587,962.2896 C 1.1856864,961.14968 0,959.24955 0,958.06709 l 0,-2.14992 1.5031013,2.14598 c 2.2525313,3.21593 7.7736359,4.76021 11.1446547,3.11721 3.107068,-1.51436 4.274961,-3.81818 1.935577,-3.81818 -0.916666,0 -1.583333,-0.84211 -1.583333,-2 0,-1.25926 0.666667,-2 1.8,-2 4.295036,0 5.651368,5.54863 2.2,9 -2.803777,2.80378 -10.7595473,2.76358 -14.3651413,-0.0726 z M 120.8839,954.24608 c -1.64877,-1.64877 -2.00507,-2.94388 -1.61334,-5.86438 l 0.50275,-3.74829 -4.13666,0.45644 c -2.48889,0.27462 -5.92915,-0.21037 -8.63665,-1.21757 -7.899174,-2.93851 -9,-3.00961 -9,-0.58122 0,3.43645 -4.345768,7.07112 -8.454545,7.07112 -3.680243,0 -4.854528,-1.51126 -1.795455,-2.31067 1.31691,-0.34415 1.19317,-0.48604 -0.5,-0.57333 -1.6607,-0.0856 -2.25,-0.73019 -2.25,-2.46101 0,-3.59694 3.01003,-5.65499 8.270762,-5.65499 l 4.61328,0 -2.429975,-4.25 C 92.105794,929.25609 92.251629,924.9567 95.923077,921.28526 100.23628,916.97205 106,917.72037 106,922.59356 c 0,2.70161 -3.01836,3.45908 -4.70644,1.1811 -1.391845,-1.87824 -1.444078,-1.87667 -2.917482,0.0875 -3.29906,4.39797 1.719742,13.3278 9.399972,16.72513 8.29936,3.67121 19.33849,-0.30263 29.74247,-10.70661 9.4528,-9.4528 14.51552,-21.58932 14.39933,-34.51852 -0.088,-9.79426 -0.63841,-10.47234 -5.25145,-6.46978 -2.71956,2.35966 -3.22811,3.16792 -1.75,2.78139 2.37994,-0.62237 2.55162,-0.0726 0.93809,3.00413 -1.10938,2.11536 -1.08324,2.12906 0.82874,0.43426 3.25798,-2.88792 4.65851,-2.2433 3.996,1.83923 -0.32035,1.97408 -1.16672,4.29378 -1.88084,5.1549 -1.65941,2.00102 -7.59084,4.50218 -8.84241,3.72866 -1.2767,-0.78904 -1.22153,-8.10809 0.0794,-10.53897 0.84093,-1.5713 0.15695,-1.37759 -3.64144,1.03128 -11.74038,7.44553 -28.82387,9.83293 -38.516385,5.38262 C 87.491838,896.94128 81,887.99318 81,878.44646 c 0,-4.67624 0.391224,-5.6755 3.4,-8.68428 3.196052,-3.19605 5.328703,-3.91866 10.1,-3.42221 4.800154,0.49946 7.26483,6.00734 3.572442,7.98344 -2.450145,1.31128 -4.731556,0.45032 -5.380281,-2.03041 -0.277707,-1.06195 -1.003665,-1.93082 -1.61324,-1.93082 -1.49994,0 -5.075864,6.01504 -5.053221,8.5 0.0309,3.39092 3.527145,9.81874 7.442883,13.68367 6.430589,6.34716 13.426267,8.65902 22.214287,7.34118 l 4.79368,-0.71886 -3.98828,-1.36125 c -4.5568,-1.5553 -10.10562,-7.07198 -11.10061,-11.03632 -1.4178,-5.64897 3.66219,-11.47954 8.62843,-9.90331 2.70394,0.85819 2.76067,5.49489 0.0672,5.49489 -1.05416,0 -2.09322,-0.52967 -2.30901,-1.17705 C 111.06147,879.04658 109,881.42529 109,884.3864 c 0,3.93901 5.15827,9.64331 10.04387,11.10707 5.47183,1.6394 11.12935,-0.18691 19.12255,-6.17296 7.66175,-5.73782 12.14193,-11.86133 11.54319,-15.77722 l -0.40995,-2.68111 -0.14983,2.83333 c -0.19526,3.69246 -1.81188,3.10513 -5.79839,-2.10658 -2.95413,-3.86205 -5.51285,-13.39868 -4.00065,-14.91087 1.07357,-1.07357 5.18597,0.6469 8.89921,3.72309 3.07152,2.54456 3.7555,3.77195 3.78041,6.78383 0.0475,5.74093 1.74916,1.74098 3.08751,-7.25745 1.41158,-9.4908 3.45476,-9.78186 3.22341,-0.45917 l -0.15867,6.39382 3.09262,-6.75 c 2.77541,-6.05767 3.38836,-6.75 5.97606,-6.75 2.51566,0 2.80074,0.28698 2.2351,2.25 -1.2439,4.31688 -7.63628,17.25767 -10.15782,20.56357 -2.27619,2.98425 -2.46922,3.90552 -1.85251,8.84149 1.97228,15.78564 11.96508,30.93791 24.68182,37.42551 6.87983,3.50983 14.44879,1.50394 16.862,-4.46869 0.69893,-1.72982 0.86476,-1.42463 0.91668,1.68701 0.0585,3.50685 -0.25314,3.94061 -4.05395,5.64228 l -4.11733,1.84339 4.11733,0.69562 c 2.71688,0.45901 4.11734,1.21378 4.11734,2.21901 0,1.21091 -0.76921,1.38815 -3.75,0.86408 -16.86809,-2.96568 -30.24723,-12.47098 -37.09747,-26.35617 l -2.61124,-5.29289 -1.24846,6.79289 c -2.59499,14.11949 -11.97829,27.47438 -24.44792,34.79578 -6.56826,3.85648 -9.5351,8.33897 -7.73973,11.69365 0.75182,1.4048 1.39155,1.81327 1.64571,1.05081 0.67976,-2.03928 4.24911,-1.4969 4.24911,0.64567 0,3.53906 -4.96211,4.14488 -8.1161,0.99089 z m 27.79921,-87.0714 c -0.31922,-0.79773 -0.55618,-0.56078 -0.60416,0.60417 -0.0434,1.05416 0.19292,1.64479 0.52522,1.3125 0.33229,-0.3323 0.36781,-1.1948 0.0789,-1.91667 z M 8.2613695,949.8327 C 3.859158,946.74927 3.5168126,938.76355 7.5937135,934.25863 10.121572,931.46537 8.3922324,929.49988 3.9329759,930.09799 0.86532371,930.50945 0,930.29464 0,929.12166 c 0,-0.97005 1.359187,-1.72121 3.8291011,-2.11616 5.1841698,-0.82898 10.1751299,-4.38091 12.8892209,-9.17289 2.648557,-4.67628 2.874339,-8.17928 0.724974,-11.24792 -1.945497,-2.77759 -3.054412,-2.81761 -3.755789,-0.13554 -0.742648,2.83989 -4.0852164,2.11295 -4.5249991,-0.9841 -0.4078618,-2.87225 1.2387821,-4.06714 5.6329471,-4.08756 6.98734,-0.0325 10.345763,7.93421 6.857416,16.26681 -1.353874,3.23399 -8.794381,10.71788 -10.655752,10.71788 -1.919788,0 -0.960319,1.70781 3.502881,6.23496 4.957944,5.02898 5.892989,9.33126 2.943296,13.54253 -2.083198,2.97418 -4.043712,2.8011 -5.975012,-0.52749 -1.456902,-2.51097 -1.397421,-1.5461 0.138705,2.25 0.778795,1.92457 -0.572822,1.91266 -3.3456195,-0.0295 z M 151.34519,940.14213 c -5.13801,-5.42716 -5.59738,-7.00692 -3.59917,-12.37753 2.14641,-5.76892 4.41162,-6.39213 7.49937,-2.06326 1.82208,2.55445 2.25461,4.49948 2.25461,10.13861 0,8.32857 -1.40992,9.3141 -6.15481,4.30218 z m -0.65586,-12.52995 c -0.25153,-0.9625 -0.45733,-0.175 -0.45733,1.75 0,1.925 0.2058,2.7125 0.45733,1.75 0.25152,-0.9625 0.25152,-2.5375 0,-3.5 z m 6.65682,-3.85111 c -3.77433,-1.8616 -4.48791,-4.00257 -3.12444,-9.37423 1.16484,-4.58912 2.01524,-4.95215 4.22159,-1.80215 1.27959,1.82687 1.5567,1.91588 1.5567,0.5 0,-2.1309 0.91462,-2.17104 3.77749,-0.16581 2.6661,1.86741 2.99375,6.89718 0.66581,10.22079 -1.83234,2.61603 -2.86908,2.7068 -7.09715,0.6214 z M 0,915.36218 c 0,-3.15738 0.3830876,-4.88127 1,-4.5 1.300641,0.80384 1.300641,8.19616 0,9 -0.6169124,0.38127 -1,-1.34262 -1,-4.5 z m 199,-2.01905 c 0,-0.598 -1.07386,-0.74953 -2.59899,-0.36675 -2.17459,0.54579 -2.5406,0.34478 -2.24145,-1.23095 0.22661,-1.1936 1.36146,-1.99912 3.09899,-2.19967 2.35866,-0.27224 2.74145,0.0419 2.74145,2.25 0,1.41153 -0.225,2.56642 -0.5,2.56642 -0.275,0 -0.5,-0.45857 -0.5,-1.01905 z m -23.19492,-13.8638 c -2.95817,-2.64313 -3.25994,-3.47535 -3.62908,-10.00825 -0.34915,-6.17895 -0.0474,-7.85144 2.27164,-12.5914 1.47084,-3.0063 4.51988,-7.04578 6.77564,-8.97663 l 4.10139,-3.51063 -2.66233,-2.46737 c -3.14178,-2.9117 -3.31599,-4.53408 -0.8181,-7.61884 2.03894,-2.51798 5.15576,-2.13034 5.15576,0.64122 0,1.17122 -0.59547,1.49229 -2.05823,1.10977 -2.91063,-0.76114 -2.1694,2.0503 1.20391,4.56637 2.32814,1.7365 3.31831,1.85745 8.25,1.00779 4.92098,-0.84782 5.60432,-0.76549 5.60432,0.67523 0,1.10493 -1.50221,2.04256 -4.59977,2.87103 C 190.19263,866.57044 185,871.15053 185,874.351 c 0,3.45722 2.8822,7.94178 5.13889,7.99587 0.35139,0.008 0.57639,-0.72376 0.5,-1.62706 -0.18597,-2.19905 2.19899,-2.94368 2.97246,-0.92805 1.48859,3.87919 -5.86671,6.37751 -8.70553,2.95694 -0.73649,-0.88741 -1.61131,-3.69991 -1.94406,-6.25 l -0.60498,-4.63652 -2.66862,5.5 c -3.65679,7.5366 -3.72335,15.05571 -0.16479,18.61428 2.83369,2.83369 5.97211,2.82569 5.97483,-0.0152 0.003,-2.73232 2.92833,-4.31989 4.91798,-2.66863 4.21319,3.49664 -0.0269,9.06957 -6.9004,9.06957 -3.52918,0 -5.1714,-0.61399 -7.7107,-2.88285 z m -16.13841,-8.78382 C 159.3,890.32885 159,888.50168 159,886.63515 c 0,-3.31012 0.0924,-3.38606 3.75,-3.08334 3.54636,0.29352 3.76685,0.51401 4.06037,4.06037 0.30272,3.65764 0.22678,3.75 -3.08334,3.75 -1.86653,0 -3.6937,-0.3 -4.06036,-0.66667 z M 133.25,883.87131 c -3.86536,-1.68004 -4.09303,-3.36852 -0.86331,-6.40268 l 2.38668,-2.24217 -2.38668,-2.38669 c -4.17429,-4.17428 -2.77836,-7.47759 3.15991,-7.47759 4.30598,0 6.07867,6.41117 2.2034,7.96884 -2.14897,0.86378 -2.1243,0.90723 0.54966,0.96777 1.53981,0.0349 4.13487,0.75385 5.76679,1.59775 2.46856,1.27655 2.79734,1.85162 1.95666,3.42245 -1.38632,2.59038 -5.94515,6.05162 -7.90797,6.00405 -0.88833,-0.0215 -3.07764,-0.67481 -4.86514,-1.45173 z m 25.37891,-3.03379 c -0.34946,-0.91068 0.13809,-2.96519 1.08346,-4.56557 1.51037,-2.55685 2.28921,-2.90977 6.42145,-2.90977 8.50199,0 9.76968,1.46698 4.61618,5.34188 -4.29547,3.22975 -11.2319,4.45065 -12.12109,2.13346 z m -55.83028,-18.20406 c -1.48576,-0.92153 -3.500592,-3.15955 -4.477408,-4.97339 -2.131508,-3.95797 -2.654023,-4.05765 -4.142735,-0.79028 -1.67597,3.67835 -7.230163,6.05369 -11.375385,4.86485 C 79.887237,860.89838 79.5,860.383 79.5,857.33845 c 0,-2.48959 0.486753,-3.54262 1.75,-3.7859 2.007944,-0.38669 2.444114,2.36132 0.5,3.15017 -1.930962,0.78351 1.204374,2.6258 4.5,2.64415 2.642361,0.0147 6.75,-2.97825 6.75,-4.91827 0,-0.51347 -1.2375,-1.12104 -2.75,-1.35017 -1.5125,-0.22912 -0.275,-0.48279 2.75,-0.56372 5.374843,-0.14378 5.545512,-0.0626 7.5,3.56633 2.61843,4.86171 7.96974,7.13432 12.08181,5.13093 3.16151,-1.54029 4.36224,-3.84979 2.00152,-3.84979 -0.91666,0 -1.58333,-0.84211 -1.58333,-2 0,-1.25926 0.66667,-2 1.8,-2 4.29504,0 5.65137,5.54863 2.2,9 -2.5325,2.5325 -10.31595,2.68118 -14.20137,0.27128 z M 21.75,855.28208 c -2.971901,-1.73097 -1.95084,-2.75323 2.75,-2.75323 3.042694,0 4.5,0.42413 4.5,1.30967 0,2.3666 -4.221955,3.20724 -7.25,1.44356 z"
         id="path4031"
         inkscape:connector-curvature="0" />
      <path
         style="fill:#c8143c;fill-opacity:1;stroke:none"
         d="m 19.337156,1050.7984 c -0.330041,-0.8601 -0.133345,-2.5881 0.437104,-3.8401 1.020031,-2.2387 0.935404,-2.2749 -5.118541,-2.1862 -8.1706554,0.1196 -14.01056733,-2.636 -14.48921137,-6.8368 l -0.33349238,-2.9269 3.56211155,3.1276 c 6.2103447,5.4527 13.5828112,5.46 23.8155602,0.024 C 42.030199,1030.286 52,1013.0222 52,995.23387 c 0,-10.42037 -0.196895,-10.54282 -7.702443,-4.79013 -7.876977,6.03738 -13.568883,9.00346 -22.652892,11.80456 -7.600037,2.3435 -12.2785101,2.621 -17.894665,1.0613 -2.7826983,-0.7728 -3.75,-1.5728 -3.75,-3.1014 0,-1.56856 0.4174897,-1.88884 1.75,-1.34253 3.1685114,1.29903 10.043065,1.75513 14.937151,0.99104 L 21.5,999.1053 17.728459,997.98374 C 9.3243102,995.48456 3.0940876,986.79193 5.9210785,981.50965 7.8218582,977.95801 11.512544,976.03093 13.932942,977.32629 15.069824,977.93473 16,979.06516 16,979.83835 c 0,2.22694 -2.188022,2.98718 -3.486502,1.2114 -1.551624,-2.12197 -3.5149777,-0.29697 -3.5097599,3.26243 0.00903,6.16271 6.9472619,12.05 14.2010469,12.05 4.535766,0 12.103437,-3.90119 18.571549,-9.57378 6.125014,-5.37169 8.28327,-9.01427 8.073834,-13.62656 -0.137378,-3.02539 -0.184459,-3.07108 -0.566422,-0.54966 -0.522098,3.44648 -1.259966,3.44648 -4.474468,0 -3.33295,-3.57347 -4.425623,-5.83561 -5.263708,-10.89737 -0.907725,-5.48237 0.439969,-6.13719 5.96594,-2.89875 5.477758,3.21018 6.857862,5.63915 6.216088,10.94028 l -0.497069,4.10584 1.470045,-3.45204 c 2.198281,-5.16213 3.406284,-13.90043 2.716913,-19.65326 -1.259389,-10.50967 -7.381092,-16.69363 -16.655474,-16.82486 -4.029872,-0.057 -5.287521,0.36365 -6.849145,2.29094 -2.415594,2.98123 -2.42115,4.13922 -0.01986,4.13922 2.369613,0 3.426573,2.48988 1.674296,3.94414 C 30.906215,946.51483 27,942.97262 27,938.351 c 0,-1.17847 1.315385,-3.45805 2.923077,-5.06574 2.366942,-2.36695 3.781481,-2.92308 7.4349,-2.92308 2.481503,0 5.666119,0.43886 7.076923,0.97525 1.410805,0.53639 2.5651,0.74693 2.5651,0.46788 0,-1.96956 -3.193417,-7.47628 -4.8496,-8.36264 -2.685431,-1.4372 -7.45741,-1.37348 -8.9504,0.11951 -1.5117,1.5117 -1.551891,2.8782 -0.075,2.55 0.61875,-0.1375 1.33125,0.3125 1.583333,1 0.561261,1.53071 -3.307956,1.70684 -4.243459,0.19316 -1.297565,-2.0995 0.525219,-5.74406 3.368561,-6.73525 3.860269,-1.3457 7.556737,-0.48595 10.253753,2.3849 l 2.245145,2.38984 1.802814,-2.96449 c 2.056415,-3.3815 6.154505,-4.85259 8.377839,-3.00738 1.951142,1.6193 1.912761,4.98922 -0.05682,4.98922 -0.885583,0 -1.418552,-0.70192 -1.25,-1.64626 0.488921,-2.73924 -1.986862,-2.66395 -4.796674,0.14586 -3.454296,3.4543 -2.868494,7.57169 1.981197,13.92513 1.954669,2.56076 4.087332,6.55028 4.739251,8.8656 1.319022,4.68457 1.620186,15.5926 0.557976,20.20967 -0.686299,2.98311 -0.679062,2.9803 1.285787,-0.5 6.535261,-11.57579 9.634943,-32.53421 7.065059,-47.77021 -1.546452,-9.16841 -3.718675,-11.26565 -8.220839,-7.93705 -5.471089,4.04495 -12.791226,2.36269 -16.026878,-3.68318 -0.877506,-1.63964 -0.757165,-1.80355 0.842624,-1.14774 4.5072,1.84768 5.739309,1.62434 2.616334,-0.47426 -1.7875,-1.20118 -3.25,-2.56426 -3.25,-3.02906 0,-1.75949 4.592978,-3.9585 8.267961,-3.9585 3.939996,0 6.443908,1.77533 9.872727,7 3.334772,5.08136 2.927885,0.92296 -0.558951,-5.7125 -7.734383,-14.71856 -15.464664,-20.09483 -27.949384,-19.4383 -4.015692,0.21117 -10.63758,6.93666 -10.61704,10.78315 0.01809,3.38767 1.847148,6.58186 2.644151,4.61765 C 24.505604,892.52687 28,893.11533 28,895.34313 c 0,2.47277 -3.971822,3.63968 -6.954727,2.04328 -5.439421,-2.91109 -4.531381,-10.54546 1.950843,-16.40176 4.196028,-3.79086 9.020993,-5.20593 14.640968,-4.29394 2.846961,0.462 3.314368,0.3179 2.429032,-0.74887 -1.92811,-2.32323 -15.52153,-8.69693 -19.760995,-9.26556 -3.93026,-0.52716 -4.121945,-0.42458 -4.776626,2.55616 -0.793504,3.6128 -4.791189,7.12974 -8.1043367,7.12974 -3.0221015,0 -3.8001691,-1.4266 -2.3066828,-4.22933 1.1039719,-2.07176 1.0621062,-2.14869 -0.4779217,-0.87817 -0.9283372,0.76588 -1.8795813,1.20081 -2.1138758,0.96651 -0.9135279,-0.91353 2.1429059,-5.38495 4.4940296,-6.57456 C 9.3509617,864.46707 9.2145772,864.39078 4.75,864.37692 0.56213388,864.36392 0,864.10797 0,862.21416 c 0,-2.07757 0.28700166,-2.12914 8.75,-1.57232 10.236239,0.67349 22.652214,4.31971 29.5,8.66332 5.151644,3.26774 6.563525,2.10937 2.305106,-1.89121 -3.484882,-3.27388 -4.52613,-6.90654 -3.176527,-11.08215 0.874752,-2.70644 1.730615,-3.53964 3.890973,-3.78793 2.29953,-0.26429 3.029782,0.24484 4.302927,3 l 1.533374,3.31831 -0.542177,-3.32125 c -0.452583,-2.77242 -0.254767,-3.26616 1.197073,-2.98782 2.370163,0.45438 4.277211,6.57389 3.056389,9.8076 -0.519406,1.37581 -2.09688,3.70968 -3.505498,5.18639 -3.197618,3.35218 -2.586233,6.19035 2.179114,10.11585 l 3.399983,2.80077 -0.562614,-3.46698 c -1.248227,-7.69192 3.37642,-24.63456 6.724226,-24.63456 1.733146,0 1.714482,0.26412 -0.335643,4.75 -2.838346,6.21058 -3.194746,23.96028 -0.577278,28.75 0.901685,1.65 3.33885,6.12142 5.415921,9.9365 2.077071,3.81508 4.53477,9.38726 5.461555,12.38263 l 1.685062,5.44613 0.657423,-4.1113 c 0.511877,-3.20109 1.308738,-4.4481 3.599357,-5.63263 1.618064,-0.83673 3.639281,-1.52133 4.491594,-1.52133 1.85719,0 2.058485,1.60626 0.29966,2.39117 -0.6875,0.30682 -0.136093,0.45682 1.22535,0.33334 3.681826,-0.33393 3.729936,2.72405 0.09996,6.35402 -2.404443,2.40444 -3.779451,3.00224 -6.323905,2.74939 L 71.5,913.867 l 0.313035,5.15991 c 0.17217,2.83795 0.646661,6.40739 1.054425,7.93208 l 0.741389,2.77215 2.250234,-3.64095 C 82.796311,914.86552 101.43984,904.95289 112,906.87433 c 12.72962,2.31617 21.20279,16.61585 13.6799,23.08677 -1.53529,1.32059 -3.47092,2.40108 -4.30141,2.40108 -2.43851,0 -5.37849,-1.94955 -5.37849,-3.56657 0,-2.25769 2.91907,-2.92636 4.33308,-0.99259 1.14863,1.57084 1.368,1.54694 3.07075,-0.33458 3.92686,-4.33913 -1.54855,-14.6788 -9.09148,-17.16819 -8.66059,-2.85825 -21.556141,2.23746 -30.72522,12.14116 -6.396184,6.90864 -8.90701,11.84033 -12.097156,23.76087 -3.16559,11.82878 -6.450665,19.75518 -11.074681,26.72155 l -3.777227,5.69064 1.076061,7.46929 c 1.999014,13.87583 11.297178,28.09844 22.762147,34.81734 7.871397,4.613 15.770269,3.1085 18.518869,-3.5272 1.127327,-2.7216 1.080847,-3.3643 -0.346594,-4.7917 C 97.593989,1011.5276 97,1011.3711 97,1012.1479 c 0,0.6678 -0.675,1.2143 -1.5,1.2143 -1.983601,0 -1.933172,-2.8966 0.06377,-3.6629 0.860073,-0.33 2.660073,-0.1005 4,0.51 3.85756,1.7576 3.39538,7.3937 -0.96377,11.7529 -1.87,1.87 -4.2325,3.4448 -5.25,3.4997 -3.45295,0.186 2.904605,1.6954 7.58428,1.8006 8.94516,0.2011 16.62801,-6.218 17.78734,-14.8615 0.41252,-3.0756 0.10594,-4.5719 -1.24193,-6.0613 -2.0948,-2.3147 -3.47969,-2.5473 -3.47969,-0.5845 0,1.5808 -1.88846,2.5257 -3.75,1.8763 -1.58868,-0.5541 -1.61775,-3.5016 -0.05,-5.0693 1.87681,-1.8768 7.18794,-1.4189 9.59933,0.8277 5.87733,5.4755 3.05609,16.6318 -5.74565,22.7206 -2.18778,1.5134 -3.99486,3.0682 -4.01573,3.4551 -0.0209,0.3869 2.04526,2.7572 4.5914,5.2673 4.34888,4.2874 4.59587,4.8135 4.0767,8.6842 -0.30395,2.2661 -1.24815,4.8158 -2.09822,5.6658 -1.3941,1.3941 -1.74464,1.3655 -3.5767,-0.2926 -1.11712,-1.0109 -2.03113,-2.5183 -2.03113,-3.3498 0,-0.8314 -0.27703,-1.2346 -0.61562,-0.896 -0.33859,0.3386 -0.137,1.9886 0.44798,3.6666 1.36052,3.9028 0.0534,3.8925 -3.24347,-0.026 -3.62612,-4.3094 -3.75002,-8.4838 -0.39178,-13.2001 2.86431,-4.0225 1.78658,-5.9041 -2.94811,-5.147 -14.975591,2.3948 -37.18317,-10.7509 -45.172899,-26.7397 C 56.288152,997.61938 56,997.33388 56,1000.1508 c 0,1.7095 -1.131901,6.6912 -2.515335,11.0706 -3.875921,12.2694 -11.128698,21.0887 -24.210377,29.4395 -5.014026,3.2007 -7.706323,6.9412 -6.984076,9.7031 0.631522,2.4149 -2.042129,2.8083 -2.953056,0.4344 z m 28.658113,-85.14854 c -1.089605,-1.69929 -1.117825,-1.69711 -0.570774,0.0441 0.316528,1.00748 0.611031,2.35748 0.654452,3 0.05698,0.84316 0.215798,0.83088 0.570775,-0.0441 0.270505,-0.66678 -0.024,-2.01678 -0.654453,-3 z M 13.729167,864.75801 c -0.332292,-0.33229 -1.194792,-0.36782 -1.916667,-0.0789 -0.797733,0.31923 -0.560776,0.55619 0.604167,0.60417 1.054166,0.0434 1.644791,-0.19293 1.3125,-0.52522 z M 25.8125,1051.6791 c 0.721875,-0.2889 1.584375,-0.2534 1.916667,0.079 0.332291,0.3323 -0.258334,0.5686 -1.3125,0.5252 -1.164943,-0.048 -1.4019,-0.285 -0.604167,-0.6042 z M 40.8,1051.1622 c 0.933333,-0.9333 1.466667,-0.9333 2.4,0 0.933333,0.9333 0.666667,1.2 -1.2,1.2 -1.866667,0 -2.133333,-0.2667 -1.2,-1.2 z m 5.2,0.141 c 0,-0.5825 0.45,-0.7809 1,-0.441 0.55,0.3399 1,0.8165 1,1.059 0,0.2425 -0.45,0.441 -1,0.441 -0.55,0 -1,-0.4766 -1,-1.059 z m 12,0.209 c 0,-1.5168 5.558886,-8.5642 9.439487,-11.967 4.794889,-4.2046 7.417267,-5.183 13.891214,-5.183 9.325561,0 14.964787,4.6287 16.142805,13.25 l 0.64904,4.75 -5.002256,0 c -5.241371,0 -6.528305,-0.7218 -5.179153,-2.9048 0.501143,-0.8108 1.619914,-1.0519 2.938943,-0.6333 2.703361,0.858 3.823771,-1.6217 2.271772,-5.028 -1.990561,-4.3688 -6.883649,-6.5855 -13.694395,-6.204 -7.317546,0.4099 -10.98461,2.7177 -15.57509,9.802 C 61.03566,1051.7873 58,1053.9125 58,1051.5122 z m 97.66667,0.1833 c -0.36667,-0.3667 -0.67407,-1.8291 -0.68312,-3.25 -0.0246,-3.8687 -4.03946,-10.2119 -7.88496,-12.4577 -2.07089,-1.2095 -5.33022,-2.0132 -8.33658,-2.0558 -4.02987,-0.057 -5.28752,0.3637 -6.84914,2.291 -2.4156,2.9812 -2.42115,4.1392 -0.0199,4.1392 2.40793,0 3.41562,2.499 1.61147,3.9963 -0.97641,0.8103 -1.94247,0.8396 -3.32291,0.1009 -4.1161,-2.2029 -4.23172,-7.2009 -0.25849,-11.1741 2.36694,-2.367 3.78148,-2.9231 7.4349,-2.9231 2.4815,0 5.66612,0.4388 7.07692,0.9752 1.41081,0.5364 2.5651,0.747 2.5651,0.4679 0,-1.9695 -3.19342,-7.4763 -4.8496,-8.3626 -2.68543,-1.4372 -7.45741,-1.3735 -8.9504,0.1195 -1.5117,1.5117 -1.55189,2.8782 -0.075,2.55 0.61875,-0.1375 1.33125,0.3125 1.58333,1 0.56126,1.5307 -3.30795,1.7068 -4.24346,0.1931 -1.29756,-2.0995 0.52522,-5.744 3.36856,-6.7352 3.86027,-1.3457 7.55674,-0.486 10.25376,2.3849 l 2.24514,2.3898 1.80282,-2.9645 c 2.05641,-3.3815 6.1545,-4.8526 8.37784,-3.0073 1.95114,1.6193 1.91276,4.9892 -0.0568,4.9892 -0.88558,0 -1.41855,-0.7019 -1.25,-1.6463 0.48892,-2.7392 -1.98686,-2.6639 -4.79667,0.1459 -3.45189,3.4519 -2.86891,7.5711 1.96837,13.9083 3.34809,4.3863 5.60415,9.9463 5.61656,13.8421 0.006,1.7758 -1.11413,2.2969 -2.32775,1.0833 z m 9.98195,-5.5833 c 2.72267,-12.9928 1.06044,-34.4395 -2.88333,-37.2019 -1.79646,-1.2582 -2.35128,-1.1748 -4.94737,0.7446 -5.47109,4.045 -12.79123,2.3627 -16.02688,-3.6832 -0.8775,-1.6396 -0.75716,-1.8035 0.84263,-1.1477 4.5072,1.8477 5.73931,1.6243 2.61633,-0.4743 -1.7875,-1.2011 -3.25,-2.5642 -3.25,-3.029 0,-1.75951 4.59298,-3.95852 8.26796,-3.95852 3.94,0 6.44391,1.77533 9.87273,7.00002 3.33477,5.0813 2.92788,0.9229 -0.55895,-5.71252 -7.73439,-14.71856 -15.46467,-20.09483 -27.94939,-19.4383 -4.01569,0.21117 -10.63758,6.93667 -10.61704,10.78315 0.0181,3.38767 1.84715,6.58187 2.64415,4.61765 0.84614,-2.08531 4.34054,-1.49685 4.34054,0.73095 0,2.47277 -3.97182,3.63968 -6.95473,2.04328 -5.43942,-2.91109 -4.53138,-10.54546 1.95085,-16.40176 4.19602,-3.79086 9.02099,-5.20593 14.64096,-4.29394 2.84696,0.462 3.31437,0.3179 2.42904,-0.74887 -1.92811,-2.32323 -15.52153,-8.69693 -19.761,-9.26556 -3.93026,-0.52716 -4.12194,-0.42458 -4.77663,2.55617 -0.7935,3.61279 -4.79118,7.12973 -8.10433,7.12973 -3.0221,0 -3.80017,-1.4266 -2.30668,-4.22933 1.10397,-2.07176 1.0621,-2.14869 -0.47793,-0.87817 -0.92833,0.76588 -1.87958,1.20081 -2.11387,0.96651 -0.91353,-0.91353 2.1429,-5.38495 4.49403,-6.57456 2.25969,-1.14335 1.94665,-1.25578 -3.51971,-1.26413 -8.219787,-0.0126 -12.903634,1.48223 -15.935724,5.08566 -2.913152,3.46209 -3.286629,7.4177 -1.007572,10.67151 1.760843,2.51396 4.707045,3.0734 3.804922,0.72251 -0.572505,-1.49193 1.654459,-2.15058 2.936524,-0.86852 1.25551,1.25551 -1.424403,4.36852 -3.760754,4.36852 -3.587411,0 -6.784009,-4.61682 -6.349713,-9.17084 0.296139,-3.10531 0.125086,-3.50433 -1.076271,-2.51063 -4.969647,4.11063 -6.830825,18.22587 -3.038832,23.04661 2.554984,3.24814 7.423611,3.77358 6.44675,0.69576 -0.784407,-2.47145 2.242139,-4.33352 4.756493,-2.92642 2.51359,1.40668 2.110038,4.41684 -0.910682,6.79294 -5.067905,3.9864 -13.386733,1.6585 -15.943919,-4.46172 -3.551112,-8.49901 -0.315323,-19.66887 7.876511,-27.18952 l 4.600779,-4.22382 -2.949256,-2.94926 c -3.499966,-3.49996 -3.615287,-4.43707 -0.882344,-7.17001 1.634904,-1.63491 2.364144,-1.82024 3.48899,-0.8867 1.697475,1.40878 0.832815,3.31675 -1.157053,2.55317 -2.511395,-0.96371 -1.538222,3.26301 1.158046,5.02968 2.298289,1.50589 3.401807,1.5439 10.910683,0.3758 5.064792,-0.78789 10.969372,-1.03156 14.997182,-0.6189 8.6636,0.88762 20.81388,4.76916 26.78524,8.55684 4.95534,3.14322 6.70735,2.11214 2.61337,-1.53799 -4.81941,-4.29692 -5.3533,-10.99617 -1.23867,-15.54278 2.44471,-2.70138 3.24204,-2.35345 5.47198,2.38779 l 1.99889,4.25 -0.66996,-4.5 -0.66996,-4.5 2.13729,1.91866 c 4.59574,4.12565 4.35745,10.58879 -0.5813,15.76626 -3.20585,3.36081 -2.58549,6.19001 2.22735,10.15798 l 3.44822,2.84291 -0.57739,-4.34291 c -0.75039,-5.64427 1.71344,-17.17922 5.09468,-23.85178 3.23351,-6.38102 10.39985,-14.24332 14.95105,-16.403 4.2803,-2.03114 12.79039,-2.03978 17.05241,-0.0173 6.04875,2.87032 6.56384,3.95019 9.9832,20.9292 l 0.60416,3 -1.90166,-3.40145 -1.90166,-3.40145 -1.85206,3.13529 c -3.29014,5.56975 -11.21457,7.55394 -14.47569,3.62454 -1.59407,-1.92074 -0.78305,-5.87574 1.28575,-6.27004 1.95563,-0.37273 2.47906,2.40342 0.57295,3.03879 -2.46515,0.82172 0.46517,2.77432 4.16349,2.77432 2.98803,0 4.34008,-0.59964 5.94098,-2.63486 2.6042,-3.31071 2.62281,-4.32179 0.0673,-3.6535 -2.49966,0.65368 -5.06922,-1.35379 -4.29969,-3.35915 0.39021,-1.01687 1.34609,-1.30802 2.96251,-0.90232 5.26701,1.32194 3.8295,-5.91991 -1.8871,-9.50676 -2.60485,-1.6344 -4.53473,-1.9809 -9.4832,-1.70268 -8.56025,0.4813 -12.374,3.64996 -18.28719,15.19391 l -4.5,8.78506 0,10.64015 c 0,7.97349 0.41088,11.39202 1.63943,13.64015 0.90168,1.65 3.33885,6.12143 5.41592,9.9365 2.07707,3.81508 4.53477,9.3872 5.46155,12.3826 l 1.68507,5.4461 0.65742,-4.1113 c 0.51188,-3.2011 1.30874,-4.4481 3.59936,-5.6326 1.61806,-0.8367 3.63928,-1.5213 4.49159,-1.5213 1.85719,0 2.05848,1.6062 0.29966,2.3911 -0.6875,0.3069 -0.13609,0.4569 1.22535,0.3334 3.68183,-0.3339 3.72994,2.724 0.1,6.354 -2.40444,2.4044 -3.77945,3.0023 -6.3239,2.7494 l -3.25141,-0.3231 0.31304,5.1599 c 0.17216,2.838 0.64666,6.4074 1.05442,7.9321 l 0.74139,2.7721 2.25023,-3.6409 c 3.21251,-5.198 11.36405,-12.2153 17.63678,-15.1827 6.20485,-2.9354 6.50414,-2.9927 6.50414,-1.2446 0,0.7154 -2.0521,2.2977 -4.56023,3.5163 -2.50813,1.2185 -6.76463,4.2775 -9.45889,6.7976 -8.01297,7.4952 -11.33733,13.7382 -14.98206,28.1354 -0.94383,3.7283 -1.41864,4.25 -3.8679,4.25 l -2.79199,0 1.30969,-6.25 z m -51.91945,-81.35419 c -0.3323,-0.33229 -1.1948,-0.36781 -1.91667,-0.0789 -0.79773,0.31922 -0.56078,0.55618 0.60417,0.60416 1.05416,0.0434 1.64479,-0.19292 1.3125,-0.52522 z m 72.8176,84.67989 c -0.31419,-0.5084 0.22175,-1.1312 1.19099,-1.384 1.34105,-0.3498 1.22448,-0.4874 -0.48776,-0.5757 -3.03377,-0.1564 -2.93098,-3.1276 0.21028,-6.0787 2.00917,-1.8875 3.20094,-2.212 6.49981,-1.7695 4.72737,0.6341 5.7648,-0.3018 3.05397,-2.7551 -4.67128,-4.2274 -4.89172,-13.2363 -0.39595,-16.1821 3.3666,-2.2058 4.05973,-1.0045 1.81998,3.1545 -1.67113,3.1031 -1.73036,3.8642 -0.5258,6.756 1.79002,4.2972 2.57147,10.7589 1.30115,10.7589 -0.54814,0 -1.28185,1.1364 -1.63047,2.5254 -0.34861,1.389 -1.5224,3.414 -2.60841,4.5 -2.02806,2.0281 -7.40903,2.6986 -8.42779,1.0503 z M 51.060266,1039.3048 C 48.189624,1036.3468 47,1034.2628 47,1032.1919 c 0,-3.4391 2.697291,-9.1348 3.957178,-8.3562 0.479601,0.2964 1.056847,-0.016 1.28277,-0.6934 0.225922,-0.6777 1.637797,0.8615 3.1375,3.4206 2.270119,3.8736 2.676144,5.6147 2.424642,10.397 -0.174023,3.3091 -0.806462,5.9106 -1.491824,6.1365 -0.654354,0.2158 -3.016854,-1.4905 -5.25,-3.7916 z m -0.353005,-12.181 c -0.239193,-1.2439 -0.443978,-0.4616 -0.455078,1.7384 -0.0111,2.2 0.184605,3.2177 0.434897,2.2616 0.250293,-0.956 0.259374,-2.7561 0.02018,-4 z M 17.75,1031.2821 c -0.9625,-0.5606 -1.75,-1.6861 -1.75,-2.501 0,-2.2459 2.923482,-2.9058 4.333085,-0.9781 1.148627,1.5709 1.367997,1.547 3.070749,-0.3346 3.925967,-4.3381 -1.548271,-14.6787 -9.088168,-17.1671 -2.162986,-0.7138 -5.7477062,-0.9286 -9.0397769,-0.5417 -4.1170383,0.4838 -5.35402646,0.337 -5.04214747,-0.5986 C 0.7991919,1007.4646 7.732227,1006.1243 12,1006.8863 c 12.706313,2.2686 21.204247,16.6026 13.679898,23.0748 -2.999311,2.5799 -5.152617,2.9386 -7.929898,1.321 z m -16.0215956,-7.9242 c -3.3575678,-3.9213 -1.36672763,-6.6454 2.6892066,-3.6796 1.8470246,1.3505 1.8856028,4.7508 0.060793,5.3582 -0.5618775,0.1871 -1.7993775,-0.5683 -2.75,-1.6786 z m 56.6219046,0.5556 c -4.270705,-1.8582 -5.329371,-4.0238 -4.13394,-8.4564 1.417721,-5.257 2.259274,-5.6003 4.675021,-1.9073 2.103609,3.2159 2.148156,3.2323 1.52926,0.5624 -0.724128,-3.1239 0.154605,-3.4363 3.356844,-1.1933 2.610079,1.8281 2.864947,5.3003 0.696826,9.4929 -1.731029,3.3475 -1.827401,3.3711 -6.124011,1.5017 z M 39.585012,1005.6139 C 39.263255,1005.2921 39,1003.3384 39,1001.2722 c 0,-4.0249 3.928085,-9.91002 6.614574,-9.91002 1.204715,0 1.169806,0.52494 -0.216125,3.25 l -1.652912,3.25 2.553204,-2.35477 c 1.404262,-1.29512 3.072978,-2.03353 3.708258,-1.6409 1.565499,0.96753 0.361715,5.44173 -2.203673,8.19059 -2.1826,2.3387 -7.245335,4.5297 -8.218314,3.5568 z m 154.727818,-6.24781 c -13.35241,-7.65183 -17.78328,-24.87906 -8.04078,-31.26259 4.54676,-2.97916 10.82546,-2.29616 12.79947,1.39232 0.92196,1.72269 0.77733,2.46195 -0.78786,4.02714 -2.04833,2.04833 -5.28366,1.61435 -5.28366,-0.70875 0,-0.7337 -0.5237,-1.65766 -1.16379,-2.05326 C 190.06664,969.6673 186,975.02581 186,978.45119 c 0,5.88202 6.26286,15.16057 12.64323,18.73121 0.85127,0.47639 1.38572,1.81936 1.19724,3.0084 -0.33532,2.1154 -0.4189,2.1029 -5.52764,-0.82471 z m -29.6251,-4.53257 c -2.66564,-5.58989 -2.1603,-7.94302 2.82259,-13.14346 5.3264,-5.55893 6.43571,-5.08012 6.61868,2.8568 0.0958,4.15556 -0.46308,6.63742 -2.18427,9.69987 -2.29499,4.08338 -3.93062,5.26691 -3.96004,2.86545 -0.0122,-0.99573 -0.17743,-0.99466 -0.81228,0.005 -0.54965,0.86574 -1.32068,0.15701 -2.48468,-2.28393 z m 2.49387,-3.90119 c 0.22023,-1.88642 0.0445,-3.20987 -0.39059,-2.94099 -0.78299,0.48392 -1.153,6.37084 -0.40042,6.37084 0.21483,0 0.57079,-1.54343 0.79101,-3.42985 z M 59.666667,990.69551 C 59.3,990.32885 59,988.50168 59,986.63515 c 0,-3.31012 0.09236,-3.38606 3.75,-3.08334 3.546357,0.29352 3.766854,0.51401 4.060365,4.06037 0.302722,3.65764 0.226784,3.75 -3.083333,3.75 -1.866534,0 -3.693699,-0.3 -4.060365,-0.66667 z m -25.296619,-6.78194 c -4.566508,-1.97529 -4.853793,-3.22149 -1.512828,-6.56246 3.371269,-3.37127 7.397926,-3.89937 10.920274,-1.43223 2.815274,1.9719 2.808185,3.55861 -0.02749,6.15405 -3.165787,2.89758 -5.759746,3.4066 -9.379952,1.84064 z m 127.584272,-1.05139 c -0.0617,-1.1 -0.33919,-1.4375 -0.6166,-0.75 -0.85773,2.12568 -3.07992,1.37891 -3.57305,-1.20072 -0.52953,-2.77007 1.73056,-8.1416 3.75199,-8.9173 1.72806,-0.66312 3.31905,1.29655 4.05987,5.00069 0.42441,2.12201 0.0172,3.62848 -1.46079,5.4047 -1.91284,2.29875 -2.05667,2.32954 -2.16142,0.46263 z M 58.603537,980.7714 c -0.335742,-0.87493 0.321755,-2.89993 1.461106,-4.5 1.802135,-2.53087 2.705279,-2.90922 6.944434,-2.90922 2.680089,0 5.171593,0.48331 5.536675,1.07403 1.019127,1.64898 -3.473741,5.81137 -7.471495,6.92191 -4.85312,1.34816 -5.759781,1.26595 -6.47072,-0.58672 z m 4.770745,-4.35366 c -0.236411,-0.24445 -1.429838,0.60787 -2.65206,1.89404 l -2.222222,2.3385 2.652059,-1.89405 c 1.458633,-1.04173 2.458633,-2.09405 2.222223,-2.33849 z m -30.188906,-2.73938 c -2.077359,-0.83107 -3.426315,-5.32094 -2.084427,-6.93782 1.721202,-2.07392 6.64262,-1.72602 7.863867,0.5559 1.637734,3.06013 1.22906,4.65637 -1.511869,5.90522 -1.400879,0.63829 -2.638379,1.12499 -2.75,1.08157 -0.111621,-0.0434 -0.794528,-0.31561 -1.517571,-0.60487 z M 3.25,962.37314 C 1.4625,961.28328 0,959.63152 0,958.70256 c 0,-1.46352 0.30038576,-1.40862 2.25,0.41118 3.078465,2.87348 7.180709,3.72689 10.769411,2.2404 2.907546,-1.20435 4.392932,-5.27443 1.730589,-4.74196 -1.559573,0.31191 -1.667599,-2.44413 -0.116071,-2.96131 C 16.216137,953.12347 19,956.12673 19,958.36103 c 0,2.80815 -4.731089,6.00171 -8.884859,5.99741 C 8.1268136,964.35639 5.0375,963.463 3.25,962.37314 z m 118.20455,-8.46551 c -2.62481,-2.6248 -3.02552,-4.61006 -1.50426,-7.45257 0.86486,-1.616 0.39288,-1.76742 -5.25,-1.68426 -4.43629,0.0654 -7.39267,-0.50477 -10.39141,-2.00403 -4.76955,-2.3846 -5.408606,-2.17458 -7.252804,2.38363 -1.482572,3.66439 -3.688952,5.21178 -7.431318,5.21178 -3.011341,0 -4.369068,-1.66087 -1.887001,-2.30832 1.341056,-0.34981 1.224479,-0.4874 -0.487757,-0.57568 -3.033766,-0.15641 -2.930984,-3.12762 0.210278,-6.07868 1.997579,-1.87663 3.208161,-2.211 6.436947,-1.77793 2.187168,0.29336 4.217495,0.29256 4.511838,-0.002 0.294343,-0.29434 -0.559378,-1.83596 -1.897156,-3.42582 -4.887282,-5.80819 -4.151829,-13.41525 1.583744,-16.38123 3.804929,-1.96761 7.904349,-0.68711 7.904349,2.469 0,2.78616 -2.06752,3.70861 -3.60366,1.60781 -1.71093,-2.33984 -4.161736,-1.31027 -5.019872,2.10882 -0.476458,1.89836 -0.02783,3.95343 1.482895,6.79282 7.132087,13.40466 24.944707,11.89281 39.485127,-3.35131 C 147.32976,920.01975 152,908.32115 152,895.23387 c 0,-10.42037 -0.1969,-10.54282 -7.70244,-4.79013 -12.03577,9.22491 -26.24859,14.61614 -35.90497,13.61951 -6.15548,-0.6353 -14.409443,-4.12685 -19.064838,-8.0647 -6.785282,-5.73946 -10.142395,-17.22656 -6.878864,-23.53753 3.485447,-6.74011 13.633547,-8.55036 16.622635,-2.9652 0.921956,1.72269 0.777329,2.46195 -0.787858,4.02714 C 96.23533,875.57129 93,875.13731 93,872.81421 c 0,-2.70262 -2.363071,-2.73125 -4.663789,-0.0565 -2.999548,3.48718 -2.966107,7.42793 0.114627,13.50746 4.421072,8.72457 13.108452,14.10878 22.549162,13.97538 3.025,-0.0427 6.625,-0.40127 8,-0.79672 2.37977,-0.68441 2.33042,-0.75192 -1.02619,-1.40364 -7.8192,-1.51819 -14.89405,-11.22148 -12.05273,-16.53053 1.90078,-3.55164 5.59146,-5.47872 8.01186,-4.18336 1.13688,0.60844 2.06706,1.73887 2.06706,2.51206 0,2.22694 -2.18802,2.98718 -3.4865,1.2114 -1.55163,-2.12197 -3.51498,-0.29697 -3.50976,3.26243 0.009,6.16271 6.94726,12.05 14.20104,12.05 4.53577,0 12.10344,-3.90119 18.57155,-9.57378 6.12502,-5.37169 8.28327,-9.01427 8.07384,-13.62656 -0.13738,-3.02539 -0.18446,-3.07108 -0.56642,-0.54966 -0.22913,1.5125 -0.75251,2.75 -1.16308,2.75 -1.01941,0 -5.64557,-5.04133 -6.88235,-7.5 -1.69597,-3.37152 -2.4945,-10.22364 -1.27898,-10.97487 1.48073,-0.91514 9.71903,4.00538 11.1346,6.6504 0.6219,1.16203 0.90705,3.96041 0.63366,6.21863 l -0.49707,4.10584 1.50599,-3.5 c 0.8283,-1.925 1.97024,-6.7625 2.53765,-10.75 1.03434,-7.26883 2.05249,-8.94687 3.21196,-5.29371 0.55907,1.76149 0.34834,4.19054 -1.04488,12.04371 -0.36895,2.07969 -0.1143,1.91156 1.51466,-1 1.077,-1.925 2.68867,-5.6375 3.5815,-8.25 1.43778,-4.20709 1.95605,-4.75 4.53436,-4.75 l 2.91104,0 -2.46871,6.55878 c -2.78981,7.41184 -2.59941,7.04141 -7.35912,14.31736 l -3.51691,5.37615 1.07606,7.46929 c 1.99456,13.84493 11.29762,28.09873 22.70093,34.78151 7.2736,4.26261 14.37995,3.52083 17.6502,-1.84238 l 1.92726,-3.16071 0.004,2.59501 c 0.004,2.84985 -2.18931,5.29949 -6.01682,6.71968 -2.31612,0.85939 -2.1995,0.96746 1.77056,1.64055 2.67283,0.45316 4.25,1.24897 4.25,2.14447 0,2.89982 -13.38622,-0.70581 -22.54303,-6.07206 -6.6544,-3.89974 -14.92146,-12.76838 -18.41011,-19.74979 C 156.27908,897.60121 156,897.32742 156,900.15084 c 0,1.70945 -1.1319,6.6912 -2.51534,11.07054 -3.87592,12.26946 -11.12869,21.08875 -24.21037,29.43952 -5.35285,3.41702 -7.69394,6.89313 -6.86547,10.19399 0.60509,2.41088 2.59118,3.56619 2.59118,1.50729 0,-1.377 2.71993,-1.26219 3.59376,0.1517 0.68179,1.10317 -2.05054,3.8483 -3.83034,3.8483 -0.46988,0 -1.95887,-1.10455 -3.30887,-2.45455 z m 26.54072,-88.25777 c -1.08961,-1.69929 -1.11783,-1.69711 -0.57078,0.0441 0.31653,1.00748 0.61104,2.35748 0.65446,3 0.057,0.84316 0.21579,0.83088 0.57077,-0.0441 0.27051,-0.66678 -0.024,-2.01678 -0.65445,-3 z M 7.5888936,948.28545 C 3.9627705,943.97605 3.8388703,939.80158 7.1971093,935.08536 10.114841,930.98779 8.9928695,929.17978 4.0252977,929.97412 0.7098414,930.50429 0,930.33074 0,928.98999 c 0,-1.09946 0.8712496,-1.62781 2.6842757,-1.62781 4.1702526,0 10.5755863,-3.61545 13.1526673,-7.42393 3.221602,-4.76097 3.977544,-11.01859 1.642748,-13.59851 C 15.376464,904.0157 14,903.79383 14,905.77885 c 0,1.60131 -1.878189,2.51738 -3.75,1.82903 -1.5883084,-0.58409 -1.6169924,-3.47871 -0.05,-5.0457 1.876814,-1.87681 7.187941,-1.41888 9.599333,0.82768 5.877324,5.47556 3.056085,16.63187 -5.745652,22.72062 -2.187778,1.51344 -3.994856,3.06825 -4.01573,3.45514 -0.02087,0.38689 2.045256,2.75718 4.591398,5.2673 4.348879,4.28736 4.595866,4.81349 4.076702,8.68414 -0.303955,2.26616 -1.248154,4.81579 -2.09822,5.66586 -1.3941,1.3941 -1.744637,1.36543 -3.576703,-0.29257 C 11.914008,947.87937 11,946.37195 11,945.54053 c 0,-0.83143 -0.277029,-1.23465 -0.61562,-0.89606 -0.338591,0.33859 -0.137,1.98859 0.44798,3.66666 1.360515,3.90278 0.0534,3.89243 -3.2434664,-0.0257 z M 151.06027,939.30484 C 148.18962,936.34684 147,934.26282 147,932.19194 c 0,-3.43911 2.69729,-9.13488 3.95718,-8.35623 0.4796,0.29641 1.05685,-0.0156 1.28277,-0.69337 0.22592,-0.67777 1.6378,0.86146 3.1375,3.42051 2.27012,3.87366 2.67614,5.61473 2.42464,10.39707 -0.17402,3.30905 -0.80646,5.91054 -1.49182,6.1365 -0.65436,0.21574 -3.01686,-1.49047 -5.25,-3.79158 z m -0.35301,-12.181 c -0.23919,-1.24391 -0.44398,-0.46166 -0.45508,1.73834 -0.0111,2.2 0.18461,3.21775 0.4349,2.26166 0.25029,-0.95609 0.25937,-2.75609 0.0202,-4 z m 7.64305,-3.21035 c -4.27071,-1.85815 -5.32937,-4.02377 -4.13394,-8.45643 1.41772,-5.25691 2.25927,-5.60023 4.67502,-1.90721 2.10361,3.21584 2.14816,3.23222 1.52926,0.56233 -0.72413,-3.12386 0.15461,-3.43623 3.35684,-1.1933 2.61008,1.82817 2.86495,5.30028 0.69683,9.49296 -1.73103,3.34744 -1.8274,3.37107 -6.12401,1.50165 z M 0.01531277,915.55316 C 0.00582877,912.26501 0.38064764,910.4794 1,910.86218 c 1.273889,0.78731 1.273889,6.5288 0,8.5 -0.6932164,1.07268 -0.9737368,-0.0124 -0.98468723,-3.80902 z M 194.19037,911.61218 c 0.48674,-2.52742 5.16726,-2.34705 5.66127,0.21817 0.32906,1.70865 0.16605,1.7914 -1.2363,0.62755 C 197.55055,911.57421 197,911.49985 197,912.23973 c 0,0.61735 -0.708,1.12245 -1.57332,1.12245 -0.96013,0 -1.44198,-0.68206 -1.23631,-1.75 z m -54.60536,-5.99832 C 139.26326,905.2921 139,903.33837 139,901.27224 c 0,-4.02494 3.92808,-9.91006 6.61457,-9.91006 1.20472,0 1.16981,0.52494 -0.21612,3.25 l -1.65291,3.25 2.5532,-2.35477 c 1.40426,-1.29512 3.07298,-2.03353 3.70826,-1.6409 1.5655,0.96753 0.36171,5.44173 -2.20367,8.19056 -2.1826,2.33868 -7.24534,4.52977 -8.21832,3.55679 z m 37.79564,-5.16127 c -8.72249,-5.31878 -6.65533,-22.10805 3.91708,-31.81423 l 4.60078,-4.22382 -2.94925,-2.94926 c -3.49997,-3.49996 -3.61529,-4.43707 -0.88235,-7.17001 1.63491,-1.63491 2.36415,-1.82024 3.48899,-0.8867 1.69748,1.40878 0.83282,3.31675 -1.15705,2.55317 -2.52964,-0.97071 -1.52848,3.2694 1.193,5.05258 2.18783,1.43352 3.51279,1.54593 8.5,0.72113 5.29294,-0.87536 5.90815,-0.79863 5.90815,0.73691 0,1.23568 -1.17941,1.91328 -4.2261,2.42802 -8.29474,1.40139 -13.21348,9.5338 -9.2172,15.23929 1.76085,2.51396 4.70705,3.0734 3.80493,0.72251 -0.57251,-1.49193 1.65446,-2.15058 2.93652,-0.86852 1.25551,1.25551 -1.4244,4.36852 -3.76075,4.36852 -3.58742,0 -6.78401,-4.61682 -6.34972,-9.17084 0.29614,-3.10531 0.12509,-3.50433 -1.07627,-2.51063 -4.96964,4.11063 -6.83082,18.22587 -3.03883,23.04661 2.54729,3.23836 7.42387,3.77438 6.45098,0.70908 -0.78354,-2.46871 2.15594,-4.31612 4.70062,-2.95424 2.56584,1.37319 2.18194,4.4154 -0.85904,6.80744 -3.28383,2.58306 -7.91249,2.64601 -11.98449,0.16299 z M 64.687726,894.83352 c -2.665637,-5.58989 -2.160295,-7.94302 2.822598,-13.14346 5.326395,-5.55893 6.435703,-5.08012 6.618677,2.8568 0.0958,4.15556 -0.46308,6.63742 -2.184271,9.69987 -2.29499,4.08338 -3.930624,5.26691 -3.960043,2.86545 -0.0122,-0.99573 -0.177429,-0.99466 -0.812274,0.005 -0.549653,0.86574 -1.320687,0.15701 -2.484687,-2.28393 z m 2.493878,-3.90119 c 0.220229,-1.88642 0.04446,-3.20987 -0.390594,-2.94099 -0.782994,0.48392 -1.152995,6.37084 -0.400416,6.37084 0.214827,0 0.570781,-1.54343 0.79101,-3.42985 z m 92.485066,-0.23682 C 159.3,890.32885 159,888.50168 159,886.63515 c 0,-3.31012 0.0924,-3.38606 3.75,-3.08334 3.54636,0.29352 3.76685,0.51401 4.06037,4.06037 0.30272,3.65764 0.22678,3.75 -3.08334,3.75 -1.86653,0 -3.6937,-0.3 -4.06036,-0.66667 z m -25.29662,-6.78194 c -4.56651,-1.97529 -4.85379,-3.22149 -1.51283,-6.56246 3.37127,-3.37127 7.39793,-3.89937 10.92027,-1.43223 2.81528,1.9719 2.80819,3.55861 -0.0275,6.15405 -3.16579,2.89758 -5.75975,3.4066 -9.37995,1.84064 z m -72.415728,-1.05139 c -0.06172,-1.1 -0.33919,-1.4375 -0.616603,-0.75 -0.857729,2.12568 -3.079922,1.37891 -3.573049,-1.20072 -0.529534,-2.77007 1.730558,-8.1416 3.751988,-8.9173 1.728067,-0.66312 3.319047,1.29655 4.059877,5.00069 0.424401,2.12201 0.01723,3.62848 -1.460793,5.4047 -1.912839,2.29875 -2.056671,2.32954 -2.16142,0.46263 z m 96.649218,-2.09078 c -0.33575,-0.87493 0.32175,-2.89993 1.4611,-4.5 1.80214,-2.53087 2.70528,-2.90922 6.94444,-2.90922 2.68009,0 5.17159,0.48331 5.53667,1.07403 1.01913,1.64898 -3.47374,5.81137 -7.47149,6.92191 -4.85312,1.34816 -5.75978,1.26595 -6.47072,-0.58672 z m 4.77074,-4.35366 c -0.23641,-0.24445 -1.42984,0.60787 -2.65206,1.89404 l -2.22222,2.3385 2.65206,-1.89405 c 1.45863,-1.04173 2.45863,-2.09405 2.22222,-2.33849 z m -30.1889,-2.73938 c -2.07736,-0.83107 -3.42632,-5.32094 -2.08443,-6.93782 1.7212,-2.07392 6.64262,-1.72602 7.86387,0.5559 1.63773,3.06013 1.22906,4.65637 -1.51187,5.90522 -1.40088,0.63829 -2.63838,1.12499 -2.75,1.08157 -0.11162,-0.0434 -0.79453,-0.31561 -1.51757,-0.60487 z m -30.18589,-11.56618 c -1.81295,-1.2375 -4.087736,-3.74012 -5.055086,-5.56138 l -1.758819,-3.31137 -1.798855,3.04521 c -3.241064,5.48669 -11.186316,7.4338 -14.422476,3.53447 -1.594073,-1.92074 -0.783055,-5.87574 1.285746,-6.27004 2.004158,-0.38198 2.450499,2.38959 0.5,3.10478 -2.609744,0.9569 1.013657,2.84253 4.854991,2.52655 3.098124,-0.25485 4.269485,-0.95779 5.881779,-3.5297 2.367853,-3.77717 4.979138,-4.18787 6.603009,-1.03852 3.265521,6.33318 8.656391,8.92621 13.976271,6.72264 2.86978,-1.1887 4.3177,-5.24939 1.68395,-4.72264 -1.55957,0.31191 -1.6676,-2.44413 -0.11607,-2.96131 1.58221,-0.5274 4.36607,2.47586 4.36607,4.71016 0,1.02079 -1.18569,2.78865 -2.63486,3.92857 -3.52251,2.7708 -9.15602,2.69602 -13.36565,-0.17742 z m -81.049224,-7.58919 -2.271302,-1.83919 4.660518,-0.0705 c 4.905425,-0.0742 5.964877,0.98039 2.726259,2.71365 -2.505266,1.34077 -2.457511,1.34828 -5.115475,-0.80401 z M 89.75,852.6999 c 0.6875,-0.27741 1.8125,-0.27741 2.5,0 0.6875,0.27741 0.125,0.50439 -1.25,0.50439 -1.375,0 -1.9375,-0.22698 -1.25,-0.50439 z"
         id="path4029"
         inkscape:connector-curvature="0" />
      <path
         style="fill:#c8143c;fill-opacity:1;stroke:none"
         d="m 19.427801,1051.0346 c -0.280186,-0.7301 -0.06513,-2.4961 0.477899,-3.9244 l 0.987328,-2.5969 -6.305537,0.096 c -8.0971429,0.1229 -13.92912553,-2.5872 -14.41460483,-6.6983 l -0.32711383,-2.77 2.32711386,2.2283 c 6.2366317,5.972 13.6528148,6.4469 23.5278028,1.5066 9.262948,-4.634 17.180786,-12.9504 22.008596,-23.1164 3.338224,-7.0294 3.691471,-8.6175 4.094938,-18.41 0.242856,-5.89434 0.04805,-10.96019 -0.432914,-11.25744 -0.480959,-0.29725 -3.79876,1.691 -7.37289,4.41834 -11.38373,8.68665 -22.241206,13.1187 -32.498419,13.266 -8.1383197,0.1169 -11.5,-0.9179 -11.5,-3.5399 0,-1.60277 0.40660927,-1.91653 1.75,-1.35037 2.9057937,1.22467 11.912329,1.76537 15.953649,0.95783 L 21.5,999.08497 l -3.463465,-0.9453 c -5.258634,-1.43527 -9.0870262,-4.6374 -11.1675235,-9.34071 -2.6923348,-6.08647 -0.2047865,-11.43678 5.3173605,-11.43678 3.184396,0 4.800571,2.42347 2.87909,4.31722 -0.925662,0.9123 -1.505471,0.76932 -2.535445,-0.62523 -1.271826,-1.72202 -1.40895,-1.70293 -2.8828533,0.40137 -1.3748196,1.96283 -1.3832956,2.6024 -0.075954,5.73131 1.8778013,4.49421 3.1250723,5.96691 6.5562973,7.74127 6.734895,3.48275 16.574553,0.21483 26.404834,-8.76949 12.096161,-11.05521 16.943231,-32.13911 10.183506,-44.29645 -4.183156,-7.52339 -15.474468,-10.74338 -20.793463,-5.92976 -2.495537,2.25843 -2.457492,4.42976 0.07762,4.42976 1.333333,0 2,0.66667 2,2 0,1.47189 -0.666667,2 -2.524751,2 -4.646922,0 -5.605622,-7.76206 -1.425892,-11.54467 2.36995,-2.14477 9.875269,-3.02586 13.880784,-1.62953 3.824456,1.33321 4.060294,-0.0646 0.819859,-4.85919 -2.579742,-3.81705 -6.527268,-5.26514 -9.827946,-3.60523 -2.752692,1.38432 -3.68535,3.63862 -1.505387,3.63862 0.870833,0 1.583333,0.45 1.583333,1 0,1.63123 -3.733537,1.13678 -4.393011,-0.58179 -0.909082,-2.36903 -0.75898,-3.12336 0.96444,-4.84678 2.437363,-2.43737 8.813596,-2.00448 12.098874,0.8214 l 2.78183,2.39283 1.742915,-2.86599 c 2.004167,-3.29559 6.118362,-4.73438 8.317938,-2.90889 1.963719,1.62974 1.9096,4.98922 -0.08037,4.98922 -1.112312,0 -1.383087,-0.58068 -0.932612,-2 0.910224,-2.86786 -1.983767,-2.60714 -5.045455,0.45454 -3.58169,3.58169 -3.160994,7.23739 1.56124,13.56662 5.181522,6.94481 6.291445,11.34772 5.785464,22.95014 l -0.413043,9.47131 2.953645,-6.3486 C 65.037549,952.36322 67,943.30656 67,931.72903 c 0,-12.41717 -1.450176,-20.25149 -4.185442,-22.61111 -1.931151,-1.66593 -2.154028,-1.6502 -4.96342,0.35026 -5.333679,3.79791 -12.99459,2.23151 -15.932288,-3.25763 -1.020732,-1.90726 -0.939545,-2.06474 0.714816,-1.38655 1.026484,0.4208 2.766334,0.99036 3.866334,1.26569 1.646908,0.41223 1.558635,0.18175 -0.5,-1.30549 -3.834844,-2.77043 -4.167754,-3.77299 -1.883461,-5.67202 4.695971,-3.90396 11.468512,-1.68424 16.024149,5.25196 3.317824,5.05157 2.878923,0.98705 -0.650139,-6.02073 -5.001629,-9.93191 -11.62537,-16.38314 -19.031965,-18.53629 -4.650379,-1.35191 -6.475738,-1.45677 -9.513776,-0.54655 C 25.835211,880.79144 21,886.42042 21,890.83796 c 0,3.70978 1.525988,5.39823 3.287132,3.63709 C 26.016595,892.74558 28,893.16234 28,895.25519 c 0,3.47772 -4.556268,4.10069 -7.811439,1.06803 C 18.619147,894.86109 18,893.11519 18,890.15181 c 0,-3.58472 0.589176,-4.69699 4.445004,-8.39153 5.058639,-4.84703 10.559675,-6.29961 17.148826,-4.52826 3.610583,0.97063 3.754827,0.93388 1.90617,-0.48561 -4.194622,-3.22085 -10.996846,-6.81281 -17.090138,-9.02455 -5.69961,-2.06885 -6.482514,-2.14417 -7.86957,-0.75712 C 15.693131,867.81191 15,869.34023 15,870.36103 c 0,3.78916 -8.6801838,7.94567 -10.4872273,5.02182 -0.3328936,-0.53864 -0.060777,-2.00114 0.6047028,-3.25 1.0981751,-2.06088 1.0562524,-2.14387 -0.4537557,-0.89823 C 3.210791,872.43318 3,872.35779 3,870.63961 c 0,-2.9796 3.2033677,-5.26298 7.578741,-5.40219 C 14.124968,865.1246 13.973976,865.03343 9,864.28415 5.975,863.82846 2.7125,863.68993 1.75,863.97629 0.61264918,864.31468 0,863.95491 0,862.94862 c 0,-5.56392 26.657877,-0.87768 38.873391,6.83363 4.855189,3.06495 5.344314,1.73085 1.126609,-3.07285 -4.7503,-5.41029 -3.795815,-14.34722 1.532316,-14.34722 1.803136,0 2.86346,0.86969 3.962376,3.25 l 1.500428,3.25 -0.324367,-3.25 c -0.368263,-3.68981 1.602263,-4.4769 3.294063,-1.31574 2.012653,3.76068 1.21666,8.78946 -1.964816,12.41296 -1.65,1.87924 -3,4.16785 -3,5.08578 0,0.91793 1.6875,3.21798 3.75,5.11121 l 3.75,3.44225 0.599306,-9.74323 c 0.637423,-10.36293 3.063409,-18.24323 5.616263,-18.24323 0.937143,0 1.277472,0.57575 0.908574,1.53708 -2.859699,7.45226 -3.820498,13.47282 -3.435421,21.52703 0.378169,7.90974 0.765013,9.32768 3.982712,14.59828 5.044365,8.26268 5.901952,10.02259 8.448458,17.33761 1.244529,3.575 2.289179,5.50867 2.321444,4.29705 0.09399,-3.52948 2.086731,-6.98881 4.715989,-8.18678 4.556119,-2.07591 7.055205,-1.08299 3.611692,1.43497 -1.519819,1.11132 -1.397827,1.20204 1,0.74367 C 82.664802,905.1931 83,905.44127 83,907.67302 c 0,3.45733 -4.465656,6.88976 -8.453531,6.49763 L 71.5,913.87109 l 0.268475,5.99555 c 0.147661,3.29755 0.505421,7.0546 0.795022,8.34901 0.488952,2.18544 0.744559,2.02434 3.579952,-2.25632 8.035382,-12.13122 26.056751,-21.14567 37.233991,-18.62479 10.68433,2.40971 18.09098,14.63076 13.14589,21.69087 -2.74757,3.9227 -10.52333,3.7529 -10.52333,-0.2298 0,-2.28464 3.08765,-3.0282 4.21435,-1.01489 0.91591,1.63665 1.06722,1.63662 2.87621,-5e-4 3.93528,-3.56137 1.01222,-11.41046 -6.01224,-16.14424 -7.98863,-5.38354 -22.499843,-0.80308 -33.288251,10.50744 -6.883208,7.21633 -9.050629,11.41567 -12.325578,23.88061 -2.751448,10.47241 -6.732346,19.94555 -11.525108,27.4257 -3.351936,5.23142 -3.649199,8.76708 -1.447715,17.21915 1.872457,7.18885 5.767611,14.94372 10.26575,20.43822 4.215523,5.1492 14.148622,11.9592 18.685206,12.8103 4.4704,0.8387 9.191835,-1.7208 11.289704,-6.1201 1.547752,-3.2457 1.545272,-3.5861 -0.03773,-5.1691 C 97.629204,1011.5628 97,1011.3845 97,1012.1479 c 0,0.6678 -0.707996,1.2143 -1.573324,1.2143 -2.37545,0 -1.279966,-3.4464 1.208894,-3.8032 2.908298,-0.417 5.36443,2.3332 5.36443,6.0065 0,2.2139 -0.98785,3.9922 -3.571202,6.4286 -1.964161,1.8524 -4.326661,3.3997 -5.25,3.4384 -4.094256,0.1714 2.651725,1.7934 7.733342,1.8594 9.70434,0.126 18.08786,-7.4031 18.08786,-16.2444 0,-4.9268 -3.98276,-8.7786 -5.36163,-5.1853 -0.83233,2.169 -4.63837,1.9228 -4.63837,-0.3 0,-3.9065 4.37476,-5.3533 9.34268,-3.0898 7.52482,3.4286 5.24143,16.6998 -3.99323,23.209 -2.3922,1.6862 -4.34945,3.6163 -4.34945,4.2893 0,0.6729 1.78438,2.6367 3.96529,4.364 4.79391,3.7968 6.02472,8.2123 3.59753,12.906 -2.07022,4.0034 -3.15238,3.9314 -5.69532,-0.3785 -2.55738,-4.3344 -2.98876,-4.4096 -1.8148,-0.3162 1.23988,4.3232 0.26409,4.8819 -2.63777,1.5104 -2.99272,-3.477 -3.11987,-8.0257 -0.35128,-12.5669 2.85737,-4.6869 1.95144,-6.4746 -2.86833,-5.6603 -9.371674,1.5833 -25.83192,-4.629 -34.64856,-13.0768 -4.923633,-4.7177 -12.485609,-15.6623 -12.640726,-18.29526 -0.05168,-0.87723 -0.716695,1.55506 -1.477809,5.40506 -1.698669,8.5925 -7.006373,19.6031 -12.407813,25.7394 -2.226289,2.5293 -6.912621,6.4079 -10.414071,8.6193 -7.518734,4.7485 -10.929268,8.6717 -10.318058,11.869 0.474439,2.4819 -1.961858,3.2865 -2.860482,0.9447 z M 40.8,1051.1622 c 0.933333,-0.9333 1.466667,-0.9333 2.4,0 0.933333,0.9333 0.666667,1.2 -1.2,1.2 -1.866667,0 -2.133333,-0.2667 -1.2,-1.2 z m 5.2,0.141 c 0,-0.5825 0.45,-0.7809 1,-0.441 0.55,0.3399 1,0.8165 1,1.059 0,0.2425 -0.45,0.441 -1,0.441 -0.55,0 -1,-0.4766 -1,-1.059 z m 12,0.1938 c 0,-2.6007 9.530881,-12.8105 14.210162,-15.2224 7.302102,-3.7638 19.52824,-1.4668 23.155541,4.3504 0.767224,1.2305 1.665197,4.3747 1.995495,6.9872 l 0.600541,4.75 -4.980869,0 c -4.314203,0 -4.98087,-0.2677 -4.98087,-2 0,-2.2002 1.953588,-2.6464 3.744645,-0.8554 0.859526,0.8596 1.310436,0.4841 1.810236,-1.5073 1.391351,-5.5435 -5.37859,-10.976 -13.715089,-11.0055 -6.017874,-0.021 -11.689654,3.6323 -16.092822,10.3664 C 60.845356,1051.7981 58,1053.8461 58,1051.497 z m 97.14218,-3.3848 c -1.74237,-6.7611 -4.70888,-10.6708 -9.80786,-12.9263 -5.19169,-2.2966 -10.38564,-1.9922 -13.45835,0.7885 -2.45438,2.2212 -2.39314,4.3878 0.12403,4.3878 1.33333,0 2,0.6667 2,2 0,1.4719 -0.66667,2 -2.52475,2 -4.64692,0 -5.60562,-7.7621 -1.42589,-11.5447 2.36995,-2.1448 9.87527,-3.0259 13.88078,-1.6295 3.82446,1.3332 4.06029,-0.065 0.81986,-4.8592 -2.57974,-3.8171 -6.52727,-5.2652 -9.82795,-3.6052 -2.75269,1.3843 -3.68535,3.6386 -1.50538,3.6386 0.87083,0 1.58333,0.45 1.58333,1 0,1.6312 -3.73354,1.1368 -4.39301,-0.5818 -0.90908,-2.369 -0.75898,-3.1234 0.96444,-4.8468 2.43736,-2.4374 8.81359,-2.0045 12.09887,0.8214 l 2.78183,2.3928 1.74292,-2.866 c 2.00417,-3.2955 6.11836,-4.7343 8.31794,-2.9088 1.96372,1.6297 1.9096,4.9892 -0.0804,4.9892 -1.11231,0 -1.38308,-0.5807 -0.93261,-2 0.91022,-2.8679 -1.98377,-2.6072 -5.04545,0.4545 -3.57917,3.5792 -3.1607,7.2378 1.55,13.5516 3.7778,5.0634 5.97728,10.2937 5.98987,14.2439 0.0105,3.2995 -1.75691,1.7503 -2.85224,-2.5 z m 10.47348,-1.5 c 1.63216,-6.9359 1.79327,-23.1483 0.30259,-30.4508 -0.61339,-3.0049 -1.95718,-6.0544 -3.10369,-7.0435 -1.93115,-1.6659 -2.15403,-1.6502 -4.96342,0.3503 -5.33368,3.7979 -12.99459,2.2315 -15.93229,-3.2577 -1.02073,-1.9072 -0.93955,-2.0647 0.71482,-1.3865 1.02648,0.4208 2.76633,0.9904 3.86633,1.2657 1.64691,0.4122 1.55864,0.1817 -0.5,-1.3055 -3.83484,-2.7704 -4.16775,-3.773 -1.88346,-5.67202 4.69597,-3.90396 11.46851,-1.68424 16.02415,5.25192 3.31782,5.0516 2.87892,0.9871 -0.65014,-6.02069 -5.00163,-9.93191 -11.62537,-16.38314 -19.03197,-18.53629 -4.65038,-1.35191 -6.47573,-1.45677 -9.51377,-0.54655 -5.1096,1.53087 -9.94481,7.15985 -9.94481,11.57739 0,3.70978 1.52599,5.39823 3.28713,3.63709 1.72946,-1.72946 3.71287,-1.31271 3.71287,0.78014 0,3.47772 -4.55627,4.10069 -7.81144,1.06803 C 118.61915,994.86109 118,993.11519 118,990.15181 c 0,-3.58471 0.58918,-4.69699 4.445,-8.39153 5.05864,-4.84703 10.55968,-6.29961 17.14883,-4.52826 3.61058,0.97063 3.75483,0.93388 1.90617,-0.48561 -4.19462,-3.22085 -10.99685,-6.81281 -17.09014,-9.02455 -5.69961,-2.06885 -6.48251,-2.14417 -7.86957,-0.75711 -0.84716,0.84716 -1.54029,2.37548 -1.54029,3.39628 0,3.78916 -8.68018,7.94567 -10.48723,5.02182 -0.33289,-0.53864 -0.0608,-2.00114 0.60471,-3.25 1.09817,-2.06088 1.05625,-2.14387 -0.45376,-0.89823 C 103.21079,972.43318 103,972.3578 103,970.63961 c 0,-2.9796 3.20337,-5.26298 7.57874,-5.40219 3.53804,-0.11256 3.38868,-0.20199 -1.52836,-0.91508 -2.99729,-0.43468 -7.94729,-0.38115 -10.999999,0.11896 -3.052709,0.50011 -5.647223,0.9119 -5.765585,0.91509 -0.118362,0.003 -1.805862,1.40241 -3.75,3.10938 -3.969768,3.4855 -4.699017,7.78924 -1.978092,11.6739 1.607745,2.29538 4.635595,3.08786 4.193296,1.09751 -0.1375,-0.61875 0.3125,-1.33125 1,-1.58333 0.744329,-0.27292 1.25,0.37674 1.25,1.60594 0,1.40323 -0.85547,2.279 -2.671378,2.73476 -4.001315,1.00427 -7.643116,-3.53739 -7.132229,-8.89455 l 0.375924,-3.94193 -2.26845,2.63723 c -3.053876,3.55034 -5.585737,12.54746 -4.763835,16.92858 0.711078,3.79037 3.817748,7.27273 6.959968,7.80165 1.553478,0.26149 2.00345,-0.2215 2.015453,-2.16335 0.02535,-4.10093 6.390198,-3.81025 6.469234,0.29545 0.0084,0.4375 -1.089232,1.9 -2.439232,3.25 -4.5226,4.52257 -12.886067,2.47117 -15.91061,-3.90253 -3.944519,-8.31246 -0.600948,-19.98184 7.858968,-27.42856 l 4.782169,-4.20943 -2.692725,-2.1181 c -2.080659,-1.63665 -2.623458,-2.83055 -2.387991,-5.25246 0.242426,-2.4935 0.764782,-3.13437 2.554734,-3.13437 1.2375,0 2.1375,0.45 2,1 -0.1375,0.55 -0.8125,0.9375 -1.5,0.86111 -2.232925,-0.2481 -1.319311,3.54737 1.260835,5.23795 2.22735,1.45941 3.580638,1.5105 11.986086,0.4525 14.745149,-1.85598 30.099049,1.24939 41.376469,8.36852 4.85519,3.06494 5.34431,1.73084 1.12661,-3.07286 -3.69144,-4.20432 -4.06475,-9.72389 -0.92742,-13.71236 1.13992,-1.44917 2.50837,-2.63486 3.04101,-2.63486 0.53263,0 1.85815,1.9125 2.94559,4.25 l 1.97717,4.25 -0.51865,-4.5 -0.51865,-4.5 2.50047,2.80576 c 3.62192,4.06412 3.42603,9.57051 -0.49952,14.04146 -1.65,1.87924 -3,4.16785 -3,5.08578 0,0.91793 1.6875,3.21798 3.75,5.11121 l 3.75,3.44225 0.54966,-9.76654 c 0.45785,-8.13505 1.07,-10.87848 3.66453,-16.42284 3.58497,-7.66093 10.02391,-15.11266 15.45102,-17.88137 5.25149,-2.67911 13.20962,-2.52008 18.30489,0.36578 5.30763,3.00615 5.84885,4.24025 9.08631,20.71851 0.41373,2.10584 0.22231,1.98759 -1.21405,-0.75 C 196.5752,953.24411 195,952.3551 195,954.72582 c 0,0.75 -1.18636,2.55 -2.63636,4 -2.01968,2.01967 -3.62846,2.63636 -6.87756,2.63636 -2.47819,0 -4.73968,-0.60065 -5.4404,-1.44496 -1.66166,-2.00218 -0.91228,-5.96474 1.20432,-6.36815 2.00848,-0.3828 2.44129,2.35858 0.5,3.16696 -2.27046,0.94544 2.47964,3.7983 5.25,3.15309 2.36052,-0.54975 7,-4.75984 7,-6.35212 0,-0.40352 -1.2375,-0.71592 -2.75,-0.69424 -2.10536,0.0302 -2.82491,-0.48801 -3.06955,-2.21058 -0.34705,-2.44361 1.61688,-3.05267 3.56419,-1.10536 0.85953,0.85953 1.31044,0.48408 1.81024,-1.50728 1.39135,-5.54358 -5.37859,-10.97604 -13.71509,-11.0055 -13.32674,-0.0471 -24.7087,18.59163 -23.65165,38.73117 0.39772,7.57744 0.83381,9.14004 3.99679,14.32123 5.02996,8.23942 5.88976,10.00446 8.43496,17.31576 1.24453,3.575 2.28918,5.5087 2.32145,4.297 0.094,-3.5294 2.08673,-6.9888 4.71598,-8.1868 4.55612,-2.0759 7.05521,-1.0829 3.6117,1.435 -1.51982,1.1113 -1.39783,1.2021 1,0.7437 2.39578,-0.458 2.73098,-0.2098 2.73098,2.0219 0,3.4574 -4.46566,6.8898 -8.45353,6.4977 l -3.04647,-0.2996 0.26848,5.9955 c 0.14766,3.2976 0.50542,7.0546 0.79502,8.3491 0.48895,2.1854 0.74456,2.0243 3.57995,-2.2564 3.90949,-5.9022 9.84949,-11.0106 17.07803,-14.6871 6.50091,-3.3064 6.7794,-3.3747 6.77614,-1.66 -0.001,0.6875 -2.44458,2.526 -5.42951,4.0857 -6.22433,3.2522 -15.34387,12.3443 -18.41013,18.3546 -1.68731,3.3074 -6.15798,17.6758 -6.15798,19.7913 0,0.2851 -1.29092,0.5184 -2.86872,0.5184 l -2.86872,0 1.3531,-5.75 z m 21.38434,2.75 c 0,-0.55 0.64844,-1 1.44098,-1 0.79254,0 1.66878,-0.3686 1.94719,-0.8191 0.27841,-0.4505 -0.82003,-0.6244 -2.44098,-0.3865 -2.39842,0.352 -2.94719,0.072 -2.94719,-1.5066 0,-1.0666 1.10713,-2.9793 2.46028,-4.2505 1.99758,-1.8766 3.20816,-2.211 6.43694,-1.7779 2.18717,0.2933 4.21059,0.2994 4.49648,0.014 0.28589,-0.2859 -0.53645,-1.9268 -1.82744,-3.6464 -3.26654,-4.3511 -4.04268,-8.8046 -2.16667,-12.4324 1.28461,-2.4842 3.39745,-4.1942 5.1822,-4.1942 1.04545,0 0.26622,2.8812 -1.08179,4 -1.87592,1.5569 -1.87592,5.7184 0,9 0.78602,1.375 1.44508,3.3704 1.46456,4.4343 0.046,2.5097 -3.89898,10.7135 -5.90691,12.2839 -1.88419,1.4736 -7.05765,1.6801 -7.05765,0.2818 z m -135.342911,-9.6763 c -5.194301,-5.1943 -5.962431,-9.7906 -2.440796,-14.6054 1.126435,-1.54 1.253285,-1.1546 0.93542,2.842 -0.202253,2.543 0.09536,5.0868 0.661361,5.6527 0.705459,0.7055 0.871435,-0.1882 0.527769,-2.8419 -0.27573,-2.1291 -0.08543,-4.9711 0.422876,-6.3155 0.903614,-2.3898 0.984527,-2.3413 3.632331,2.1768 2.250678,3.8405 2.657101,5.5914 2.40604,10.3653 -0.16615,3.1594 -0.780215,5.9017 -1.36459,6.0941 -0.584375,0.1924 -2.73556,-1.3232 -4.780411,-3.3681 z m -34.069569,-8.6345 c -1.18094,-0.8645 -1.671081,-2.0291 -1.281385,-3.0446 0.812518,-2.1174 3.296495,-2.1225 4.107725,-0.01 0.57213,1.4909 0.803449,1.4772 2.606989,-0.155 4.024918,-3.6425 1.14977,-11.3977 -6.044646,-16.3043 -3.038536,-2.0723 -4.326054,-2.3125 -10.226203,-1.9074 -6.540642,0.4491 -9.3235086,-0.697 -4.25,-1.7504 1.375,-0.2855 3.5125,-0.7232 4.75,-0.9727 9.136313,-1.8422 20.75,7.521 20.75,16.729 0,6.1318 -6.166219,10.5222 -10.41248,7.4139 z m -16.0113174,-7.8712 c -0.94484601,-1.1035 -1.47825983,-2.6309 -1.18536409,-3.3942 0.77772769,-2.0267 5.03305209,-0.2122 5.41203349,2.3077 0.4244323,2.8222 -2.1695856,3.489 -4.2266694,1.0865 z m 57.7995584,1.0958 c -4.509908,-1.3076 -5.729819,-3.2375 -5.085062,-8.0445 0.787067,-5.868 2.037043,-6.591 4.636006,-2.6817 1.585684,2.3852 2.02521,2.6826 1.57028,1.0624 -0.45267,-1.6122 -0.207688,-2.25 0.864199,-2.25 2.117265,0 4.638816,2.7837 4.638816,5.1211 0,1.7179 -2.657663,8.0372 -3.27568,7.7887 -0.123376,-0.05 -1.630227,-0.4978 -3.348559,-0.996 z m -20.017024,-20.4214 c -1.08217,-2.82 0.680149,-8.37785 3.313306,-10.44909 3.698997,-2.90963 4.631842,-2.53166 2.747081,1.11307 l -1.632237,3.15639 2.724094,-2.14277 c 3.287381,-2.58585 4.706306,-1.98815 3.896288,1.64127 -1.235292,5.53493 -9.557279,10.56733 -11.048532,6.68113 z m 156.410653,-3.5951 c -11.0793,-5.71746 -17.85464,-19.70975 -13.41653,-27.70756 4.1313,-7.44491 17.51279,-8.36481 16.49211,-1.13373 -0.25629,1.81571 -1.0519,2.52531 -3.09497,2.76039 -1.92372,0.22135 -2.75,-0.1365 -2.75,-1.19098 0,-2.86013 -2.30369,-2.97369 -4.66379,-0.22992 -2.90477,3.377 -2.99378,7.61468 -0.27778,13.22518 1.94553,4.01892 8.19334,10.62989 10.89799,11.53144 0.6818,0.22727 1.08303,1.37106 0.89161,2.54178 l -0.34803,2.1285 -3.73061,-1.9251 z m -31.16081,-5.91756 C 163.72386,992.13081 163,989.51181 163,988.52194 c 0,-2.64072 6.80191,-10.15976 9.19077,-10.15976 1.88392,0 2.00653,0.50256 1.65225,6.77238 -0.29122,5.15379 -0.96268,7.58693 -2.80948,10.18052 l -2.42681,3.40814 -0.83176,-2.93052 c -0.45747,-1.61179 -0.60076,-4.19039 -0.31842,-5.73023 0.34738,-1.89458 0.15505,-2.57828 -0.59489,-2.11479 -0.70103,0.43326 -0.89652,2.47236 -0.53205,5.54971 0.31689,2.67563 0.42122,4.86479 0.23185,4.86479 -0.18936,0 -1.06816,-1.80911 -1.95288,-4.02024 z M 59.666667,990.69551 C 59.3,990.32885 59,988.50168 59,986.63515 c 0,-3.31012 0.09236,-3.38606 3.75,-3.08334 3.546357,0.29352 3.766854,0.51401 4.060365,4.06037 0.302722,3.65764 0.226784,3.75 -3.083333,3.75 -1.866534,0 -3.693699,-0.3 -4.060365,-0.66667 z m -27.593632,-8.07311 -2.269855,-1.83801 3.11876,-3.33865 c 2.751312,-2.94529 3.550023,-3.26866 6.779156,-2.74464 2.013218,0.3267 4.345585,1.27919 5.183038,2.11664 1.363522,1.36352 1.30806,1.81116 -0.530717,4.28354 -2.62611,3.53101 -8.846724,4.30153 -12.280382,1.52112 z m 126.638685,0.11816 C 158.32027,982.34912 158,980.60729 158,978.86983 c 0,-3.91672 4.06239,-8.34233 5.76952,-6.28537 1.82079,2.19393 2.45429,6.491 1.28033,8.68458 -1.50497,2.81205 -3.43865,2.69998 -2.70642,-0.15686 l 0.57669,-2.25 -1.74835,2.29505 c -0.96158,1.26228 -2.06861,1.97478 -2.46005,1.58333 z M 58.610842,980.54153 c -0.278955,-0.45136 0.362873,-2.25136 1.426285,-4 1.689888,-2.7788 2.470763,-3.17742 6.198175,-3.16404 2.345584,0.008 4.939698,0.46518 5.764698,1.01502 1.257266,0.83793 0.971523,1.48275 -1.765777,3.98469 -2.463476,2.25166 -4.230078,2.98498 -7.190983,2.98498 -2.158863,0 -4.153442,-0.36929 -4.432398,-0.82065 z M 64.5,976.53257 c 1.1,-0.61026 1.462594,-1.12326 0.805764,-1.13998 -0.65683,-0.0167 -2.253884,0.98209 -3.54901,2.21959 -1.295125,1.2375 -1.657718,1.75049 -0.805763,1.13998 C 61.802946,978.14165 63.4,977.14284 64.5,976.53257 z m -19.690722,-3.92039 c -3.573259,-3.83112 -4.671236,-6.28359 -4.95329,-11.06381 -0.304208,-5.15569 0.238276,-5.70667 3.801082,-3.86059 7.414278,3.84172 9.41106,7.7903 7.420793,14.6744 -0.625806,2.16459 -0.821429,1.86585 -1.458097,-2.22669 -0.404427,-2.59968 -1.235794,-5.036 -1.847482,-5.41405 -0.732344,-0.45261 -0.882631,-0.0892 -0.440061,1.06412 1.286981,3.35381 1.925515,9.57662 0.982676,9.57662 -0.517394,0 -2.094924,-1.2375 -3.505621,-2.75 z m -13.657276,-2.24381 c -0.887688,-2.54642 -0.762693,-3.14417 0.836434,-4 3.429517,-1.83542 5.704268,-1.16228 7.04982,2.08617 1.481023,3.5755 0.375703,4.86596 -4.190431,4.89233 -2.05297,0.0118 -2.887966,-0.66108 -3.695823,-2.9785 z M 3.25,962.37314 C 1.4625,961.28328 0,959.63152 0,958.70256 c 0,-1.39539 0.44861054,-1.26756 2.580564,0.73531 1.9182825,1.80213 3.7019456,2.42431 6.95,2.42431 2.40319,0 4.809793,-0.45 5.348007,-1 1.641033,-1.67697 1.709491,-3.90642 0.121429,-3.95455 -1.744055,-0.0529 -2.041415,-2.69831 -0.366071,-3.25676 C 16.086689,953.16662 19,956.05465 19,957.97906 c 0,0.81072 -1.104545,2.57857 -2.454545,3.92857 -3.073713,3.07372 -8.6948915,3.27053 -13.295455,0.46551 z m 118.20455,-8.46551 c -2.73448,-2.73447 -2.8655,-3.33437 -1.50804,-6.90477 l 0.94652,-2.48952 -6.3116,0.0957 c -4.74229,0.0719 -7.38923,-0.46598 -10.64573,-2.16337 -4.119579,-2.14724 -4.398541,-2.17101 -5.634922,-0.48016 C 97.58535,942.94392 97,944.3159 97,945.01435 c 0,2.1856 -4.250676,5.34783 -7.188561,5.34783 -1.546292,0 -2.811439,-0.45 -2.811439,-1 0,-0.55 0.648442,-1 1.440983,-1 0.792541,0 1.668775,-0.36858 1.947187,-0.81906 0.278413,-0.45048 -0.82003,-0.6244 -2.440983,-0.3865 C 85.548769,947.50864 85,947.2281 85,945.64999 c 0,-1.06655 1.107125,-2.97927 2.460278,-4.25049 1.997579,-1.87663 3.208161,-2.211 6.436947,-1.77793 2.187168,0.29336 4.210582,0.29947 4.496476,0.0136 0.285894,-0.2859 -0.536455,-1.92677 -1.827441,-3.64639 -4.859653,-6.47315 -3.82915,-14.29348 2.158537,-16.3808 3.557663,-1.24021 7.275203,0.096 7.275203,2.61501 0,2.78363 -2.75082,3.47332 -4.06433,1.01901 -1.04386,-1.95047 -1.18427,-1.9648 -3.015255,-0.30778 -2.597774,2.35096 -2.414792,5.90867 0.565451,10.99407 2.932094,5.00324 9.113174,8.43391 15.195504,8.43391 2.62627,0 6.49984,-1.22565 11.01932,-3.48665 9.26295,-4.63406 17.18078,-12.95047 22.00859,-23.11647 3.33823,-7.02935 3.69148,-8.61747 4.09494,-18.40996 0.24286,-5.89434 0.0481,-10.96019 -0.43291,-11.25744 -0.48096,-0.29725 -3.79876,1.691 -7.37289,4.41833 -16.6787,12.72712 -33.30434,16.58329 -46.084902,10.689 -12.764154,-5.88673 -20.395039,-19.93513 -15.560657,-28.64705 4.131295,-7.44491 17.512784,-8.36481 16.492109,-1.13373 -0.25629,1.81571 -1.051899,2.52531 -3.09497,2.76039 -1.923723,0.22135 -2.75,-0.1365 -2.75,-1.19098 0,-2.86013 -2.303693,-2.9737 -4.663789,-0.22992 -5.733398,6.66547 0.630714,19.88588 12.156509,25.25317 5.11947,2.38402 14.69643,3.11473 18.96047,1.44666 1.65897,-0.64897 1.45799,-0.86311 -1.33416,-1.42154 -4.89516,-0.97904 -9.13816,-4.46283 -11.25002,-9.23703 -2.69233,-6.08647 -0.20478,-11.43678 5.31736,-11.43678 3.1844,0 4.80057,2.42347 2.87909,4.31722 -0.92566,0.9123 -1.50547,0.76932 -2.53544,-0.62523 -1.27183,-1.72202 -1.40895,-1.70293 -2.88286,0.40137 -1.37482,1.96283 -1.38329,2.6024 -0.076,5.73131 1.8778,4.49421 3.12507,5.96691 6.5563,7.74127 6.73489,3.48275 16.57455,0.21483 26.40483,-8.76949 C 150.26942,879.08737 156,865.96233 156,855.31296 c 0,-1.62293 0.50782,-2.95078 1.12849,-2.95078 0.78394,0 0.98809,2.51881 0.66866,8.25 l -0.45983,8.25 3.29256,-7 c 1.81091,-3.85 3.31001,-7.5625 3.33134,-8.25 0.022,-0.70931 1.31726,-1.25 2.99442,-1.25 l 2.95564,0 -1.34172,3.80284 c -1.61939,4.58985 -6.69383,14.56551 -9.5109,18.69716 -2.43223,3.56722 -2.59234,8.03085 -0.56699,15.8067 1.87246,7.18885 5.76761,14.94377 10.26575,20.43822 4.21552,5.14924 14.14862,11.95923 18.6852,12.81029 4.14425,0.77747 8.94492,-1.54503 10.99199,-5.31778 l 1.48531,-2.73743 0.04,2.68191 c 0.0385,2.57629 -2.98829,5.65028 -6.95996,7.06857 -0.825,0.29461 0.4125,0.86629 2.75,1.2704 2.53327,0.43795 4.25,1.27892 4.25,2.08193 0,0.97181 -0.90558,1.18613 -3.25,0.76918 -11.44156,-2.03488 -20.08157,-6.15802 -27.20324,-12.98178 -4.92363,-4.71767 -12.48561,-15.66231 -12.64073,-18.29525 -0.0517,-0.87723 -0.71669,1.55504 -1.4778,5.40504 -1.69867,8.59251 -7.00638,19.60311 -12.40782,25.73947 -2.22629,2.5292 -6.91262,6.40784 -10.41407,8.61921 -9.18358,5.79996 -12.16116,10.13577 -9.66724,14.07702 0.76367,1.20686 1.16646,1.22158 2.52707,0.0924 1.27671,-1.05958 1.87367,-1.08459 2.82621,-0.11838 0.94555,0.95912 0.78638,1.53585 -0.73351,2.65762 -2.62201,1.93521 -3.25285,1.82961 -6.10432,-1.02187 z M 7.0725801,947.72732 C 4.4397208,944.38018 4.4363773,939.79894 7.0636485,935.4895 9.963665,930.73268 9.0266589,929.01293 3.997798,929.86255 0.7289406,930.41482 0,930.24844 0,928.95008 c 0,-1.11576 0.94022032,-1.5879 3.1621425,-1.5879 C 10.630349,927.36218 19,918.74052 19,911.04745 19,906.12068 15.017238,902.26892 13.638374,905.86218 12.806042,908.0312 9,907.78504 9,905.56218 c 0,-3.90648 4.374764,-5.35326 9.342675,-3.08973 7.524825,3.42854 5.241438,16.69976 -3.993229,23.20896 C 11.957251,927.36758 10,929.29774 10,929.97065 c 0,0.67291 1.784382,2.63673 3.965294,4.36404 4.793902,3.79684 6.024715,8.21234 3.597527,12.90601 -2.07022,4.00336 -3.152384,3.93144 -5.695322,-0.37852 -2.5661542,-4.34931 -2.9887663,-4.40963 -1.797693,-0.2566 1.133473,3.95219 1.133329,3.7566 0.0028,3.7566 -0.5100808,0 -1.8600808,-1.18569 -2.9999999,-2.63486 z M 151.65709,939.68593 c -5.1943,-5.1943 -5.96243,-9.79068 -2.4408,-14.60539 1.12644,-1.54004 1.25329,-1.15465 0.93542,2.84199 -0.20225,2.54299 0.0954,5.08672 0.66136,5.65272 0.70546,0.70546 0.87144,-0.1883 0.52777,-2.84199 -0.27573,-2.12909 -0.0854,-4.97103 0.42288,-6.31541 0.90361,-2.38988 0.98453,-2.3414 3.63233,2.17674 2.25068,3.84049 2.6571,5.59138 2.40604,10.36533 -0.16615,3.15934 -0.78022,5.90168 -1.36459,6.09409 -0.58438,0.19241 -2.73556,-1.32322 -4.78041,-3.36808 z m 7.71867,-15.40994 c -4.50991,-1.30757 -5.72982,-3.23744 -5.08506,-8.04446 0.78707,-5.86803 2.03704,-6.59107 4.63601,-2.68168 1.58568,2.3852 2.0252,2.68255 1.57028,1.06233 -0.45267,-1.61217 -0.20769,-2.25 0.86419,-2.25 2.11727,0 4.63882,2.7837 4.63882,5.12109 0,1.71796 -2.65766,8.0372 -3.27568,7.78872 -0.12338,-0.0496 -1.63023,-0.4978 -3.34856,-0.996 z M 0.03062555,915.36218 c 0,-3.91575 0.2792236,-5.06793 0.96937445,-4 1.245161,1.92675 1.245161,6.07325 0,8 -0.69015085,1.06793 -0.96937445,-0.0842 -0.96937445,-4 z m 194.15974445,-3.75 c 0.48674,-2.52742 5.16726,-2.34705 5.66127,0.21817 0.32906,1.70865 0.16605,1.7914 -1.2363,0.62755 C 197.55055,911.57421 197,911.49985 197,912.23973 c 0,0.61735 -0.708,1.12245 -1.57332,1.12245 -0.96013,0 -1.44198,-0.68206 -1.23631,-1.75 z m -54.83163,-7.75753 c -1.08217,-2.82009 0.68015,-8.3779 3.3133,-10.44914 3.699,-2.90963 4.63185,-2.53166 2.74708,1.11307 l -1.63223,3.1564 2.72409,-2.14278 c 3.28738,-2.58585 4.70631,-1.98815 3.89629,1.64126 -1.23529,5.53492 -9.55728,10.56733 -11.04853,6.68119 z m 38.52274,-2.99556 c -5.98495,-3.25246 -7.64951,-14.15814 -3.51589,-23.03501 1.32661,-2.84887 4.42407,-6.86725 7.12822,-9.24754 l 4.78217,-4.20943 -2.69272,-2.1181 c -2.08066,-1.63665 -2.62346,-2.83055 -2.38799,-5.25246 0.24242,-2.4935 0.76478,-3.13437 2.55473,-3.13437 1.2375,0 2.1375,0.45 2,1 -0.1375,0.55 -0.8125,0.9375 -1.5,0.86111 -2.21896,-0.24655 -1.32688,3.54241 1.22819,5.21656 1.95143,1.27862 3.75817,1.47521 8.5,0.92486 4.94902,-0.57439 6.02181,-0.43695 6.02181,0.77147 0,0.94057 -1.43191,1.69935 -3.97391,2.10584 C 190.4553,865.63282 185,870.58107 185,874.74327 c 0,3.602 2.40242,7.61891 4.5567,7.61891 0.79382,0 1.3308,-0.50625 1.1933,-1.125 -0.1375,-0.61875 0.3125,-1.33125 1,-1.58333 0.74433,-0.27292 1.25,0.37674 1.25,1.60594 0,1.40323 -0.85547,2.27899 -2.67138,2.73476 -4.00131,1.00426 -7.64311,-3.5374 -7.13223,-8.89455 l 0.37593,-3.94193 -2.26845,2.63723 c -3.05388,3.55034 -5.58574,12.54746 -4.76384,16.92858 0.71108,3.79037 3.81775,7.27273 6.95997,7.80165 1.55348,0.26149 2.00345,-0.2215 2.01545,-2.16335 0.0254,-4.10093 6.3902,-3.81025 6.46924,0.29545 0.008,0.4375 -1.08924,1.9 -2.43924,3.25 -2.8124,2.81241 -7.53127,3.19734 -11.66397,0.95146 z M 64.60858,894.34194 C 63.723861,892.13081 63,889.51181 63,888.52194 c 0,-2.64072 6.801912,-10.15976 9.19077,-10.15976 1.883919,0 2.006526,0.50255 1.652249,6.77238 -0.291215,5.15379 -0.962679,7.58692 -2.809481,10.18052 l -2.426809,3.40814 -0.831759,-2.93052 c -0.457468,-1.61179 -0.600758,-4.19039 -0.318423,-5.73023 0.347378,-1.89458 0.155056,-2.57828 -0.594883,-2.11479 -0.701031,0.43326 -0.896522,2.47236 -0.532057,5.54971 0.31689,2.67563 0.421226,4.86479 0.231858,4.86479 -0.189368,0 -1.068166,-1.80911 -1.952885,-4.02024 z m 95.05809,-3.64643 C 159.3,890.32885 159,888.50168 159,886.63515 c 0,-3.31012 0.0924,-3.38606 3.75,-3.08334 3.54636,0.29352 3.76685,0.51401 4.06037,4.06037 0.30272,3.65764 0.22678,3.75 -3.08334,3.75 -1.86653,0 -3.6937,-0.3 -4.06036,-0.66667 z m -27.59363,-8.07311 -2.26986,-1.83801 3.11876,-3.33865 c 2.75131,-2.94529 3.55002,-3.26866 6.77916,-2.74464 2.01321,0.3267 4.34558,1.27919 5.18303,2.11664 1.36353,1.36352 1.30806,1.81116 -0.53071,4.28354 -2.62611,3.53101 -8.84673,4.30153 -12.28038,1.52112 z m -73.361323,0.11816 C 58.320273,882.34912 58,880.60729 58,878.86983 c 0,-3.91672 4.062391,-8.34233 5.769515,-6.28537 1.8208,2.19393 2.454299,6.491 1.280332,8.68458 -1.504963,2.81205 -3.438646,2.69998 -2.706421,-0.15686 l 0.576689,-2.25 -1.74834,2.29505 c -0.961588,1.26228 -2.068614,1.97478 -2.460058,1.58333 z m 99.899123,-2.19903 c -0.27895,-0.45136 0.36288,-2.25136 1.42629,-4 1.68988,-2.7788 2.47076,-3.17742 6.19817,-3.16404 2.34559,0.008 4.9397,0.46518 5.7647,1.01502 1.25727,0.83793 0.97152,1.48275 -1.76578,3.98469 -2.46347,2.25166 -4.23007,2.98498 -7.19098,2.98498 -2.15886,0 -4.15344,-0.36929 -4.4324,-0.82065 z M 164.5,876.53257 c 1.1,-0.61026 1.46259,-1.12326 0.80576,-1.13998 -0.65683,-0.0167 -2.25388,0.98209 -3.54901,2.21959 -1.29512,1.2375 -1.65771,1.75049 -0.80576,1.13998 0.85196,-0.61051 2.44901,-1.60932 3.54901,-2.21959 z m -19.69072,-3.92039 c -3.57326,-3.83112 -4.67124,-6.28359 -4.95329,-11.06381 -0.30421,-5.15569 0.23827,-5.70667 3.80108,-3.86059 7.41428,3.84172 9.41106,7.7903 7.42079,14.6744 -0.6258,2.16459 -0.82143,1.86585 -1.45809,-2.22669 -0.40443,-2.59968 -1.2358,-5.036 -1.84749,-5.41405 -0.73234,-0.45261 -0.88263,-0.0892 -0.44006,1.06411 1.28698,3.35382 1.92552,9.57663 0.98268,9.57663 -0.51739,0 -2.09492,-1.2375 -3.50562,-2.75 z M 131.152,870.36837 c -0.88769,-2.54642 -0.76269,-3.14417 0.83644,-4 3.42951,-1.83542 5.70426,-1.16228 7.04982,2.08617 1.48102,3.5755 0.3757,4.86596 -4.19043,4.89233 -2.05297,0.0118 -2.88797,-0.66108 -3.69583,-2.9785 z m -27.85345,-7.96571 c -3.19946,-1.95082 -6.720817,-7.27368 -6.081252,-9.19237 0.186323,-0.55897 1.451445,0.70311 2.811382,2.80462 1.35994,2.10152 3.7481,4.43226 5.30702,5.17944 3.61641,1.7333 9.28877,0.73802 10.68733,-1.8752 1.05737,-1.97572 0.98622,-2.10604 -1.27303,-2.33197 -1.56049,-0.15605 -1.6533,-2.8239 -0.11607,-3.33631 1.45276,-0.48425 4.36607,2.40378 4.36607,4.32819 0,0.81072 -1.10455,2.57857 -2.45455,3.92857 -3.06261,3.06262 -8.69097,3.27295 -13.2469,0.49503 z M 80.045681,859.91722 C 79.386116,859.1225 78.993516,857.43959 79.173236,856.17744 79.545391,853.56383 83,852.31029 83,854.78886 c 0,0.86532 -0.45,1.57332 -1,1.57332 -1.859786,0 -1.014995,2.03605 1.278345,3.08096 3.193672,1.45514 7.392592,-0.33937 9.512977,-4.0656 0.939773,-1.65149 2.004049,-3.00556 2.365058,-3.00904 1.349199,-0.013 -0.465209,4.02978 -2.902388,6.46696 -2.925526,2.92553 -10.147061,3.56542 -12.208311,1.08176 z m -58.095415,-5.39423 -2.271302,-1.83919 4.660518,-0.0705 c 4.905425,-0.0742 5.964877,0.98039 2.726259,2.71365 -2.505266,1.34077 -2.457511,1.34828 -5.115475,-0.80401 z M 89.75,852.6999 c 0.6875,-0.27741 1.8125,-0.27741 2.5,0 0.6875,0.27741 0.125,0.50439 -1.25,0.50439 -1.375,0 -1.9375,-0.22698 -1.25,-0.50439 z"
         id="path4027"
         inkscape:connector-curvature="0" />
    </g>
  </g>
</svg>
